<?xml version="1.0" encoding="UTF-8"?>
<svg width="47px" height="62px" viewBox="0 0 47 62" version="1.1" xmlns="http://www.w3.org/2000/svg" xmlns:xlink="http://www.w3.org/1999/xlink">
    <!-- Generator: Sketch 47.1 (45422) - http://www.bohemiancoding.com/sketch -->
    <title>agreed</title>
    <desc>Created with Sketch.</desc>
    <defs></defs>
    <g id="Symbols" stroke="none" stroke-width="1" fill="none" fill-rule="evenodd">
        <g id="Why-us?-LG" transform="translate(-970.000000, -115.000000)">
            <g id="Why-us?">
                <g id="card" transform="translate(895.000000, 97.000000)">
                    <g id="agreed" transform="translate(66.000000, 16.000000)">
                        <rect id="size" fill-opacity="0" fill="#FFFFFF" x="0" y="0" width="65" height="65"></rect>
                        <path d="M40.0978525,3 L10,3 L10,62.911763 L54.8628368,62.911763 L54.8628368,17.7649843 L40.0978525,3 Z M42.2747412,8.39489809 L49.4679387,15.5880955 L42.2747412,15.5880955 L42.2747412,8.39489809 Z M52.5913007,60.640227 L12.271536,60.640227 L12.271536,5.1768887 L40.0978525,5.1768887 L40.0978525,17.7649843 L52.6859481,17.7649843 L52.6859481,60.640227 L52.5913007,60.640227 Z M16.4360188,10.5717868 L16.4360188,12.8433228 L32.1474764,12.8433228 L32.1474764,10.5717868 L16.4360188,10.5717868 Z M16.4360188,15.3041535 L16.4360188,17.5756896 L32.1474764,17.5756896 L32.1474764,15.3041535 L16.4360188,15.3041535 Z M16.4360188,26.9457757 L16.4360188,29.2173118 L47.7642866,29.2173118 L47.7642866,26.9457757 L16.4360188,26.9457757 Z M16.4360188,22.4027037 L16.4360188,24.6742397 L47.7642866,24.6742397 L47.7642866,22.4027037 L16.4360188,22.4027037 Z M16.4360188,31.3942005 L16.4360188,33.6657365 L47.7642866,33.6657365 L47.7642866,31.3942005 L16.4360188,31.3942005 Z M16.4360188,35.8426252 L16.4360188,38.1141613 L47.7642866,38.1141613 L47.7642866,35.8426252 L16.4360188,35.8426252 Z M16.4360188,40.3856973 L16.4360188,42.6572333 L47.7642866,42.6572333 L47.7642866,40.3856973 L16.4360188,40.3856973 Z M16.4360188,44.3608854 L16.4360188,46.6324214 L25.4275156,46.6324214 L25.4275156,44.3608854 L16.4360188,44.3608854 Z" fill-opacity="0.391276042" fill="#72C42A" fill-rule="nonzero" transform="translate(32.431418, 32.955882) rotate(1.000000) translate(-32.431418, -32.955882) "></path>
                    </g>
                </g>
            </g>
        </g>
    </g>
</svg>