<?xml version="1.0" encoding="UTF-8"?>
<svg width="82px" height="75px" viewBox="0 0 82 75" version="1.1" xmlns="http://www.w3.org/2000/svg" xmlns:xlink="http://www.w3.org/1999/xlink">
    <!-- Generator: Sketch 47.1 (45422) - http://www.bohemiancoding.com/sketch -->
    <title>ava+ico</title>
    <desc>Created with Sketch.</desc>
    <defs></defs>
    <g id="Symbols" stroke="none" stroke-width="1" fill="none" fill-rule="evenodd" stroke-linecap="round" stroke-linejoin="round">
        <g id="ava+ico" transform="translate(-23.000000, -27.000000)" stroke-width="2" stroke="#14A31A">
            <path d="M61.502,62.641 C61.502,69.546 55.907,75.143 49.004,75.143 C42.097,75.143 36.502,69.546 36.502,62.641 C36.502,55.739 42.097,50.141 49.004,50.141 C55.907,50.141 61.502,55.739 61.502,62.641 Z M74.005,95.145 L74.005,95.152 C57.337,102.054 39.434,101.547 24,95.145 L24,90.77 C24,83.866 29.595,78.27 36.502,78.27 C38.196,79.964 40.15,81.238 42.237,82.101 C44.395,82.993 46.699,83.446 49.004,83.448 C51.305,83.446 53.603,82.993 55.767,82.101 C57.855,81.238 59.808,79.964 61.502,78.27 C68.406,78.27 74.005,83.866 74.005,90.77 L74.005,95.145 Z M72.571,56.57 L69.716,56.57 C66.564,56.57 64.003,54.013 64.003,50.858 L64.003,33.716 C64.003,30.56 66.564,28 69.716,28 L98.285,28 C101.44,28 104,30.56 104,33.716 L104,50.859 C104,54.014 101.44,56.571 98.285,56.571 L81.143,56.571 C81.143,61.304 77.305,65.142 72.576,65.142 L72.576,56.57 L72.571,56.57 Z M83.998,48.757 L83.998,47.506 L83.998,48.757 Z M83.998,41.881 L83.998,34.381 L83.998,41.881 Z"></path>
        </g>
    </g>
</svg>