<?xml version="1.0" encoding="UTF-8"?>
<svg width="66px" height="52px" viewBox="0 0 66 52" version="1.1" xmlns="http://www.w3.org/2000/svg" xmlns:xlink="http://www.w3.org/1999/xlink">
    <!-- Generator: Sketch 47.1 (45422) - http://www.bohemiancoding.com/sketch -->
    <title>building_g</title>
    <desc>Created with Sketch.</desc>
    <defs></defs>
    <g id="Page-1" stroke="none" stroke-width="1" fill="none" fill-rule="evenodd">
        <g id="category_menu" transform="translate(-469.000000, -418.000000)" fill-rule="nonzero" fill="#14A31A">
            <g id="category_menu-activ" transform="translate(91.000000, 397.000000)">
                <g id="2" transform="translate(355.000000, 0.000000)">
                    <path d="M89,70.6414182 L89,62.6876561 C89,61.864017 88.3323086,61.1963256 87.5086696,61.1963256 L80.0023065,61.1963256 L80.0023065,54.6543563 C80.0023065,53.8307172 79.3346152,53.1630258 78.5109761,53.1630258 L71.0046131,53.1630258 L71.0046131,48.1123869 L78.5109761,48.1123869 C79.3346152,48.1123869 80.0023065,47.4446955 80.0023065,46.6210564 L80.0023065,38.5877566 C80.0023065,37.7641176 79.3346152,37.0964262 78.5109761,37.0964262 L71.0046131,37.0964262 L71.0046131,30.564399 C71.0046131,29.74076 70.3369217,29.0730686 69.5132826,29.0730686 L61.9436081,29.0730686 L61.9436081,22.4913304 C61.9436081,21.6676914 61.2759167,21 60.4522777,21 L24.4913304,21 C23.6676914,21 23,21.6676914 23,22.4913304 L23.1690174,70.6414182 C23.1690174,71.4650573 23.8367088,72.1327487 24.6603479,72.1327487 L87.5086696,72.1327487 C88.3323086,72.1327487 89,71.4650573 89,70.6414182 Z M76.9066232,40.079087 L76.9066232,45.129726 L61.9436081,45.129726 L61.9436081,40.079087 L76.9563342,40.079087 L76.9066232,40.079087 Z M67.9089297,48.1123869 L67.9089297,53.1630258 L54.1986322,53.1630258 C54.5863781,51.5325046 55.0536616,49.8920411 55.5308873,48.1919245 L55.5308873,48.0825602 L67.9089297,48.1123869 Z M56.346148,45.129726 C56.8047004,43.4659861 57.1796595,41.7803294 57.4696169,40.079087 L58.9609473,40.079087 L58.9609473,45.129726 L56.346148,45.129726 Z M67.9089297,32.0557294 L67.9089297,37.0964262 L57.8474206,37.0964262 C57.9555741,35.410717 57.8587584,33.718112 57.5590967,32.0557294 L67.9089297,32.0557294 Z M58.9609473,23.9826608 L58.9609473,29.0730686 L56.7537783,29.0730686 C56.0821419,27.2521403 55.1512369,25.5376677 53.9898459,23.9826608 L58.9609473,23.9826608 Z M52.2101916,69.1898566 L26.1516783,69.1898566 L26.0323718,23.9826608 L50.1024447,23.9826608 C57.1415242,31.7176945 54.9641818,39.343364 52.6575908,47.4064905 C50.6691502,54.395859 48.6111142,61.603956 52.2101916,69.1898566 Z M58.9609473,56.1456867 L58.9609473,61.166499 L53.2640651,61.166499 C53.1994636,59.4860516 53.3094167,57.8034365 53.5921578,56.1456867 L58.9609473,56.1456867 Z M67.9089297,69.1898566 L55.5905406,69.1898566 C54.6712323,67.6189279 54.0004866,65.9152337 53.6021,64.1392177 L60.1838382,64.1392177 L60.4125089,64.1392177 L60.6411795,64.1392177 L67.9089297,64.1392177 L67.9089297,69.1898566 Z M69.4002602,61.1565568 L61.9436081,61.1565568 L61.9436081,56.1456867 L76.9563342,56.1456867 L76.9563342,61.1764412 L69.4499712,61.1764412 L69.4002602,61.1565568 Z M85.9043167,69.1898566 L70.8915906,69.1898566 L70.8915906,64.1491599 L78.2388784,64.1491599 L78.3979536,64.1491599 L78.5470867,64.1491599 L85.9043167,64.1491599 L85.9043167,69.1898566 Z" id="building_g"></path>
                </g>
            </g>
        </g>
    </g>
</svg>