<?xml version="1.0" encoding="UTF-8"?>
<svg width="66px" height="26px" viewBox="0 0 66 26" version="1.1" xmlns="http://www.w3.org/2000/svg" xmlns:xlink="http://www.w3.org/1999/xlink">
    <!-- Generator: Sketch 47.1 (45422) - http://www.bohemiancoding.com/sketch -->
    <title>Ceiling_g</title>
    <desc>Created with Sketch.</desc>
    <defs></defs>
    <g id="Page-1" stroke="none" stroke-width="1" fill="none" fill-rule="evenodd">
        <g id="category_menu" transform="translate(-114.000000, -576.000000)" fill-rule="nonzero" fill="#14A31A">
            <g id="category_menu-activ" transform="translate(91.000000, 397.000000)">
                <g id="4" transform="translate(0.000000, 145.000000)">
                    <path d="M77.3524273,49.2910674 L77.3524273,35.4448537 C77.3524273,34.6469559 76.4835619,34.0004333 75.4112623,34.0004333 L67.6466021,34.0004333 C66.5743025,34.0004333 65.705437,34.6469559 65.705437,35.4448537 L65.705437,40.6245451 L57.3724037,34.4233596 C56.6145729,33.8588801 55.3846507,33.8588801 54.6275963,34.4233596 L23.5689555,57.5340855 C22.8103482,58.098565 22.8103482,59.0125942 23.5689555,59.5764959 C24.3267863,60.1409754 25.5567085,60.1409754 26.3137629,59.5764959 L55.9996118,37.4872641 L66.2738102,45.1322922 C66.8289834,45.5459742 67.6644608,45.6690388 68.3889036,45.4454426 C69.1148993,45.2224241 69.5877671,44.6954995 69.5877671,44.1113759 L69.5877671,36.8892741 L73.4700972,36.8892741 L73.4700972,49.8890574 C73.4700972,50.2721177 73.6743078,50.6395782 74.0384704,50.9105515 L85.6854607,59.5770737 C86.0643761,59.8590246 86.5613143,60 87.0582526,60 C87.5551909,60 88.0521291,59.8590246 88.4310445,59.5770737 C89.1896518,59.0125942 89.1896518,58.098565 88.4310445,57.5346633 L77.3524273,49.2910674 Z" id="Ceiling_g"></path>
                </g>
            </g>
        </g>
    </g>
</svg>