<?xml version="1.0" encoding="UTF-8"?>
<svg width="46px" height="64px" viewBox="0 0 46 64" version="1.1" xmlns="http://www.w3.org/2000/svg" xmlns:xlink="http://www.w3.org/1999/xlink">
    <!-- Generator: Sketch 47.1 (45422) - http://www.bohemiancoding.com/sketch -->
    <title>checkout_w</title>
    <desc>Created with Sketch.</desc>
    <defs></defs>
    <g id="Symbols" stroke="none" stroke-width="1" fill="none" fill-rule="evenodd">
        <g id="Artboard" transform="translate(-162.000000, -239.000000)" fill="#FFFFFF">
            <g id="checkout_w" transform="translate(152.000000, 238.000000)">
                <rect id="size" fill-opacity="0" x="0" y="0" width="65" height="65"></rect>
                <path d="M53.6886503,8.51111111 C54.9715205,8.51111111 56,9.55993615 56,10.8277778 L56,62.7555556 C56,64.0052209 54.989046,65 53.6886503,65 L12.3113497,65 C11.0562125,65 10,63.9789201 10,62.7555556 L10,10.8277778 C10,9.51482 11.0018142,8.51111111 12.3113497,8.51111111 L24.1288344,8.51111111 L24.1288344,7.21666667 C24.1288344,5.90370889 25.2027344,4.82777778 26.5122699,4.82777778 L28.0189925,4.82777778 L28.1369575,4.49470228 C28.8754169,2.40965344 30.8076865,1 33,1 C35.2163517,1 37.1988072,2.43235926 37.8584169,4.48101665 L37.9700642,4.82777778 L39.4877301,4.82777778 C40.8152835,4.82777778 41.8711656,5.84917824 41.8711656,7.14444444 L41.9449722,8.05255601 L41.983113,8.51111111 L53.6886503,8.51111111 Z M39.2668712,7.51111111 L35.3021472,7.51111111 L35.3021472,5.84444444 C35.3021472,4.55740222 34.2134706,3.46666667 32.9279141,3.46666667 C31.6423576,3.46666667 30.553681,4.55740222 30.553681,5.84444444 L30.553681,7.51111111 L26.7331288,7.51111111 L26.7331288,12.2666667 L39.2668712,12.2666667 L39.2668712,7.51111111 Z M12.7484663,62.2444444 L53.2515337,62.2444444 L53.2515337,11.3388889 L41.9432515,11.3388889 L41.9432515,12.7777778 C41.9432515,14.1372606 40.8436667,15.0944444 39.559816,15.0944444 L26.5843558,15.0944444 C25.2748203,15.0944444 24.2009202,14.0185133 24.2009202,12.7055556 L24.2009202,11.3388889 L12.7484663,11.3388889 L12.7484663,62.2444444 Z M19.2145929,39.1091205 L21.5731707,36.7991996 L29.1097561,44.1803071 L45.4268293,28.1998511 L47.7854071,30.509772 L29.1097561,48.8001489 L19.2145929,39.1091205 Z" id="checkout" fill-rule="nonzero"></path>
            </g>
        </g>
    </g>
</svg>