<?xml version="1.0" encoding="UTF-8"?>
<svg width="68px" height="58px" viewBox="0 0 68 58" version="1.1" xmlns="http://www.w3.org/2000/svg" xmlns:xlink="http://www.w3.org/1999/xlink">
    <!-- Generator: Sketch 47.1 (45422) - http://www.bohemiancoding.com/sketch -->
    <title>electrician</title>
    <desc>Created with Sketch.</desc>
    <defs></defs>
    <g id="Page-1" stroke="none" stroke-width="1" fill="none" fill-rule="evenodd">
        <g id="category_menu" transform="translate(-113.000000, -65.000000)" stroke-width="0.4" stroke="#252525" fill="#252525" fill-rule="nonzero">
            <g transform="translate(91.000000, 47.000000)" id="1">
                <g>
                    <path d="M70.5004009,24.1733461 C64.6008544,24.5637874 59.8012233,29.1514717 59.3012617,35.0080899 C59.0012848,38.5220609 60.2011925,42.0360319 62.7010004,44.5738998 C64.500862,46.3308853 65.6007775,48.5759223 65.9007545,50.9185696 L64.800839,50.9185696 C64.2008851,50.9185696 63.8009158,51.3090108 63.8009158,51.8946726 L63.8009158,56.7751878 C63.8009158,57.3608497 64.2008851,57.7512909 64.800839,57.7512909 L67.2006545,57.7512909 L67.2006545,58.6297836 L65.6007775,58.6297836 C65.0008236,58.6297836 64.6008544,59.0202248 64.6008544,59.6058867 C64.6008544,60.1915485 65.0008236,60.5819897 65.6007775,60.5819897 L67.2006545,60.5819897 L67.2006545,62.0461443 C67.2006545,62.6318061 67.6006238,63.0222473 68.2005777,63.0222473 L70.3004163,63.0222473 L70.3004163,66.043024 L59.5012463,66.043024 L59.5012463,49.7933695 L61.2011157,49.7933695 C61.8010696,49.7933695 62.2010388,49.4029283 62.2010388,48.8172664 C62.2010388,48.5244355 62.0010542,48.2316046 61.8010696,48.036384 L43.3024914,29.8808674 C42.9025221,29.4904261 42.3025682,29.4904261 41.902599,29.8808674 L23.3040285,48.1339943 C23.0040515,48.4268252 22.9040592,48.8172664 23.1040438,49.2077076 C23.3040285,49.5981489 23.6040054,49.7933695 24.0039747,49.7933695 L25.703844,49.7933695 L25.703844,74.023897 C25.703844,74.6095588 26.1038133,75 26.7037672,75 L36.9029832,75 L48.3021071,75 L58.5013232,75 C59.1012771,75 59.5012463,74.6095588 59.5012463,74.023897 L59.5012463,68.0928403 L71.1003548,68.0928403 C71.7003087,68.0928403 72.100278,67.7023991 72.100278,67.1167373 L72.100278,63.1198576 L74.2001166,63.1198576 C74.8000704,63.1198576 75.2000397,62.7294164 75.2000397,62.1437546 L75.2000397,60.6796 L76.7999167,60.6796 C77.3998706,60.6796 77.7998399,60.2891588 77.7998399,59.703497 C77.7998399,59.1178352 77.3998706,58.7273939 76.7999167,58.7273939 L75.2000397,58.7273939 L75.2000397,57.8489012 L77.5998553,57.8489012 C78.1998091,57.8489012 78.5997784,57.45846 78.5997784,56.8727981 L78.5997784,51.9922829 C78.5997784,51.4066211 78.1998091,51.0161799 77.5998553,51.0161799 L76.5999321,51.0161799 C76.8999091,48.6735326 77.9998245,46.3308853 79.6996939,44.5738998 C81.8995248,42.3288628 83.0994326,39.3029433 82.9994402,36.1794136 C83.1994249,29.3466923 77.3998706,23.7829049 70.5004009,24.1733461 Z M42.6025452,31.9306837 L58.8013001,47.8411634 C55.4015614,47.8411634 30.1035059,47.8411634 26.3037979,47.8411634 L42.6025452,31.9306837 Z M37.9029064,73.0477939 L37.9029064,59.261569 L47.302184,59.261569 L47.302184,73.0477939 L37.9029064,73.0477939 Z M57.5014,73.0477939 L49.3020302,73.0477939 L49.3020302,58.285466 C49.3020302,57.6998041 48.902061,57.3093629 48.3021071,57.3093629 L36.9029832,57.3093629 C36.3030294,57.3093629 35.9030601,57.6998041 35.9030601,58.285466 L35.9030601,73.0477939 L27.7036903,73.0477939 L27.7036903,49.7933695 L57.5014,49.7933695 L57.5014,73.0477939 Z M42.6025452,45.8889573 C45.3023377,45.8889573 47.4021763,43.7415306 47.4021763,41.1060524 C47.4021763,38.4705741 45.2023453,36.3231474 42.6025452,36.3231474 C39.9027527,36.3231474 37.8029141,38.4705741 37.8029141,41.1060524 C37.8029141,43.7415306 40.002745,45.8889573 42.6025452,45.8889573 Z M42.6025452,38.1777432 C44.2024222,38.1777432 45.40233,39.4466772 45.40233,41.0084421 C45.40233,42.5702069 44.1024299,43.8391409 42.6025452,43.8391409 C41.0026681,43.8391409 39.8027604,42.5702069 39.8027604,41.0084421 C39.8027604,39.4466772 41.1026605,38.1777432 42.6025452,38.1777432 Z M78.3997938,43.1097452 C76.2999552,45.2571719 75.0000551,48.0878707 74.7000781,50.9185696 L72.4002549,50.9185696 L72.4002549,41.1575391 L76.4999398,37.1555166 C76.8999091,36.7650754 76.8999091,36.1794136 76.4999398,35.7889724 C76.0999705,35.3985312 75.5000166,35.3985312 75.1000474,35.7889724 L71.4003318,39.4005536 L67.8006084,35.7889724 C67.4006392,35.3985312 66.8006853,35.3985312 66.400716,35.7889724 C66.0007468,36.1794136 66.0007468,36.7650754 66.400716,37.1555166 L70.4004086,41.1575391 L70.4004086,51.0161799 L67.9006007,51.0161799 C67.6006238,48.185481 66.3007237,45.4523925 64.1008928,43.3049658 C62.0010542,41.1575391 61.001131,38.3268403 61.2011157,35.3009209 C61.6010849,30.4204056 65.7007698,26.5159934 70.6003932,26.2231625 C76.3999475,25.9303316 81.1995786,30.5180159 81.1995786,36.1794136 C81.1995786,38.7172815 80.1996554,41.2551494 78.3997938,43.1097452 Z M73.3001857,61.1676515 L69.1005085,61.1676515 L69.1005085,57.8489012 L73.3001857,57.8489012 L73.3001857,61.1676515 Z M76.6999244,55.7990848 L65.7007698,55.7990848 L65.7007698,52.8707757 C73.700155,52.8707757 68.7005393,52.8707757 76.6999244,52.8707757 L76.6999244,55.7990848 Z M71.2003471,23.6852946 C70.6003932,23.6852946 70.200424,23.2948534 70.200424,22.7091916 L70.200424,19.976103 C70.200424,19.3904412 70.6003932,19 71.2003471,19 C71.800301,19 72.2002703,19.3904412 72.2002703,19.976103 L72.2002703,22.7091916 C72.2002703,23.2948534 71.800301,23.6852946 71.2003471,23.6852946 Z M87.999056,35.3985312 C88.5990098,35.3985312 88.9989791,35.8865827 88.9989791,36.3746342 C88.9989791,36.960296 88.5990098,37.3507372 87.999056,37.3507372 L85.1992712,37.3507372 C84.5993173,37.3507372 84.199348,36.960296 84.199348,36.3746342 C84.199348,35.7889724 84.5993173,35.3985312 85.1992712,35.3985312 L87.999056,35.3985312 Z M54.301646,37.3507372 C53.8016844,37.3507372 53.3017228,36.960296 53.3017228,36.3746342 C53.3017228,35.7889724 53.7016921,35.3985312 54.301646,35.3985312 L57.1014308,35.3985312 C57.7013847,35.3985312 58.1013539,35.7889724 58.1013539,36.3746342 C58.1013539,36.960296 57.7013847,37.3507372 57.1014308,37.3507372 L54.301646,37.3507372 Z M81.7995325,27.3944862 C81.3995632,27.7849274 80.7996093,27.7849274 80.3996401,27.3944862 C79.9996708,27.004045 79.9996708,26.4183831 80.3996401,26.0279419 L82.3994863,24.0757358 C82.7994556,23.6852946 83.3994095,23.6852946 83.7993788,24.0757358 C84.199348,24.4661771 84.199348,25.0518389 83.7993788,25.4422801 L81.7995325,27.3944862 Z M60.6011618,27.3944862 L58.6013155,25.4422801 C58.2013462,25.0518389 58.2013462,24.4661771 58.6013155,24.0757358 C59.0012848,23.6852946 59.6012386,23.6852946 60.0012079,24.0757358 L62.0010542,26.0279419 C62.4010234,26.4183831 62.4010234,27.004045 62.0010542,27.3944862 C61.6010849,27.7849274 61.001131,27.7849274 60.6011618,27.3944862 Z M55.2015768,31.1036778 C54.7016152,30.9084571 54.5016306,30.3227953 54.7016152,29.7371335 C54.9015999,29.249082 55.5015537,29.0538614 56.0015153,29.249082 L58.6013155,30.4204056 C59.1012771,30.6156262 59.3012617,31.2012881 59.1012771,31.6893396 C58.9012924,32.1773911 58.3013385,32.3726117 57.801377,32.1773911 L55.2015768,31.1036778 Z M76.0999705,24.6613977 C75.600009,24.4661771 75.300032,23.8805152 75.600009,23.3924637 L76.6999244,20.8545958 C76.8999091,20.3665443 77.4998629,20.1713237 77.9998245,20.3665443 C78.4997861,20.5617649 78.6997707,21.1474267 78.4997861,21.6354782 L77.3998706,24.1733461 C77.199886,24.6613977 76.5999321,24.8566183 76.0999705,24.6613977 Z M64.800839,24.1733461 L63.7009235,21.6354782 C63.5009389,21.1474267 63.7009235,20.5617649 64.2008851,20.3665443 C64.7008467,20.1713237 65.3008006,20.3665443 65.5007852,20.8545958 L66.6007007,23.3924637 C66.8006853,23.8805152 66.6007007,24.4661771 66.1007391,24.6613977 C65.6007775,24.8566183 65.0008236,24.6613977 64.800839,24.1733461 Z M87.0991251,30.9084571 L84.499325,31.9821705 C83.9993634,32.1773911 83.3994095,31.9821705 83.1994249,31.494119 C82.9994402,31.0060675 83.1994249,30.4204056 83.6993864,30.225185 L86.2991866,29.1514717 C86.7991482,28.9562511 87.3991021,29.1514717 87.5990867,29.6395232 C87.7990713,30.1275747 87.5990867,30.7132365 87.0991251,30.9084571 Z" id="electrician"></path>
                </g>
            </g>
        </g>
    </g>
</svg>