<?xml version="1.0" encoding="UTF-8"?>
<svg width="65px" height="65px" viewBox="0 0 65 65" version="1.1" xmlns="http://www.w3.org/2000/svg" xmlns:xlink="http://www.w3.org/1999/xlink">
    <!-- Generator: Sketch 47.1 (45422) - http://www.bohemiancoding.com/sketch -->
    <title>feedback</title>
    <desc>Created with Sketch.</desc>
    <defs></defs>
    <g id="Symbols" stroke="none" stroke-width="1" fill="none" fill-rule="evenodd">
        <g id="Artboard" transform="translate(-42.000000, -706.000000)">
            <g id="feedback" transform="translate(42.000000, 706.000000)">
                <rect id="size" fill-opacity="0" fill="#FFFFFF" x="0" y="0" width="65" height="65"></rect>
                <path d="M32.4980713,42.8156997 C36.8262292,42.8156997 40.4658164,39.2662116 40.4658164,34.9279484 C40.4658164,30.5896852 36.9245964,27.0401972 32.4980713,27.0401972 C28.1699135,27.0401972 24.5303263,30.5896852 24.5303263,34.9279484 C24.5303263,39.3648085 28.1699135,42.8156997 32.4980713,42.8156997 Z M32.4980713,29.1107319 C35.7441897,29.1107319 38.4984719,31.7728479 38.4984719,35.0265453 C38.4984719,38.2802427 35.8425569,40.9423587 32.4980713,40.9423587 C29.251953,40.9423587 26.4976707,38.2802427 26.4976707,35.0265453 C26.4976707,31.7728479 29.251953,29.1107319 32.4980713,29.1107319 Z M26.9895068,12.1520667 L26.0058346,17.7720895 C25.9074674,18.1664771 26.1042018,18.5608646 26.3993035,18.7580584 C26.6944052,18.9552522 27.0878741,19.0538491 27.481343,18.8566553 L32.5964386,16.1945392 L37.7115342,18.8566553 C38.0066358,19.0538491 38.4001047,18.9552522 38.7935736,18.7580584 C39.0886753,18.5608646 39.2854097,18.1664771 39.1870425,17.7720895 L38.2033703,12.1520667 L42.3347936,8.10959424 C42.6298953,7.81380356 42.7282625,7.419416 42.6298953,7.12362533 C42.5315281,6.72923777 42.2364264,6.53204399 41.8429575,6.4334471 L36.1376586,5.64467198 L33.5801108,0.517633675 C33.2850091,-0.172544558 32.1046024,-0.172544558 31.8095008,0.517633675 L29.251953,5.64467198 L23.546654,6.4334471 C23.1531851,6.53204399 22.8580835,6.72923777 22.7597162,7.12362533 C22.661349,7.51801289 22.7597162,7.91240046 23.0548179,8.10959424 L26.9895068,12.1520667 Z M29.8421563,7.51801289 C30.137258,7.51801289 30.4323597,7.22222222 30.6290941,7.02502844 L32.4980713,3.08115283 L34.3670486,6.92643155 C34.4654158,7.22222222 34.7605175,7.419416 35.1539864,7.419416 L39.383777,8.10959424 L36.334393,11.0675009 C36.1376586,11.2646947 36.0392914,11.6590823 36.0392914,11.954873 L36.7278619,16.1945392 L32.9899075,14.2226014 C32.8915402,14.1240046 32.6948058,14.1240046 32.4980713,14.1240046 C32.3013369,14.1240046 32.2029697,14.1240046 32.0062352,14.2226014 L28.2682807,16.1945392 L28.9568513,11.954873 C29.0552185,11.6590823 28.8584841,11.2646947 28.6617496,11.0675009 L25.6123657,8.10959424 L29.8421563,7.51801289 Z M16.0707451,24.2794843 C16.3658467,24.0822905 16.5625812,23.6879029 16.464214,23.2935154 L15.4805417,17.6734926 L19.6119651,13.6310201 C19.9070668,13.3352294 20.005434,12.9408419 19.9070668,12.6450512 C19.8086996,12.2506636 19.5135979,12.0534699 19.120129,11.954873 L13.4148301,11.1660978 L10.8572823,5.94046265 C10.6605478,5.64467198 10.3654461,5.3488813 9.97197724,5.3488813 C9.57850835,5.3488813 9.28340668,5.54607509 9.08667223,5.94046265 L6.52912443,11.0675009 L0.823825494,11.8562761 C0.430356601,11.954873 0.135254932,12.1520667 0.0368877087,12.5464543 C-0.0614795144,12.9408419 0.0368877087,13.3352294 0.331989378,13.5324232 L4.46341275,17.6734926 L3.47974052,23.2935154 C3.38137329,23.6879029 3.57810774,24.0822905 3.87320941,24.2794843 C4.16831108,24.476678 4.56177997,24.5752749 4.95524886,24.3780812 L10.0703445,21.7159651 L15.1854401,24.3780812 C15.3821745,24.5752749 15.7756434,24.476678 16.0707451,24.2794843 Z M10.4638134,19.6454304 C10.1687117,19.4482366 9.87361002,19.4482366 9.57850835,19.6454304 L5.84055387,21.6173682 L6.52912443,17.3777019 C6.62749166,17.0819113 6.43075721,16.6875237 6.23402276,16.4903299 L3.18463885,13.5324232 L7.41442944,12.9408419 C7.70953111,12.9408419 8.00463278,12.6450512 8.20136723,12.4478574 L10.0703445,8.60257869 L11.9393217,12.4478574 C12.0376889,12.7436481 12.3327906,12.9408419 12.7262595,12.9408419 L16.9560501,13.5324232 L13.9066662,16.4903299 C13.7099317,16.6875237 13.6115645,17.0819113 13.6115645,17.3777019 L14.3001351,21.6173682 L10.4638134,19.6454304 Z M64.959255,12.6450512 C64.8608877,12.2506636 64.5657861,12.0534699 64.1723172,11.954873 L58.4670182,11.1660978 L55.9094704,6.03905954 C55.6143688,5.3488813 54.4339621,5.3488813 54.1388604,6.03905954 L51.5813126,11.1660978 L45.8760137,11.954873 C45.4825448,12.0534699 45.1874431,12.2506636 45.0890759,12.6450512 C44.9907087,13.0394388 45.0890759,13.4338263 45.3841776,13.6310201 L49.5156009,17.6734926 L48.5319287,23.2935154 C48.4335615,23.6879029 48.6302959,24.0822905 48.9253976,24.2794843 C49.2204993,24.476678 49.6139682,24.5752749 50.007437,24.3780812 L55.1225327,21.7159651 L60.2376283,24.3780812 C60.5327299,24.5752749 60.9261988,24.476678 61.3196677,24.2794843 C61.6147694,24.0822905 61.8115038,23.6879029 61.7131366,23.2935154 L60.7294644,17.6734926 L64.8608877,13.6310201 C64.959255,13.3352294 65.0576222,12.9408419 64.959255,12.6450512 Z M58.7621199,16.5889268 C58.5653855,16.7861206 58.4670182,17.1805082 58.4670182,17.4762988 L59.1555888,21.7159651 L55.4176343,19.7440273 C55.3192671,19.6454304 55.1225327,19.6454304 54.9257982,19.6454304 C54.7290638,19.6454304 54.6306965,19.6454304 54.4339621,19.7440273 L50.6960076,21.7159651 L51.3845782,17.4762988 C51.4829454,17.1805082 51.2862109,16.7861206 51.0894765,16.5889268 L48.0400926,13.6310201 L52.2698832,13.0394388 C52.5649849,13.0394388 52.8600865,12.7436481 53.056821,12.5464543 L54.9257982,8.70117558 L56.7947754,12.5464543 C56.8931427,12.842245 57.1882443,13.0394388 57.5817132,13.0394388 L61.8115038,13.6310201 L58.7621199,16.5889268 Z M56.4996738,49.1259006 C56.8931427,48.83011 57.483346,48.83011 57.8768149,49.3230944 C58.2702838,49.717482 58.1719166,50.3090633 57.7784477,50.7034509 L49.8107026,57.7038301 C49.6139682,57.802427 49.4172337,57.9010239 49.122132,57.9010239 C48.8270304,57.802427 48.6302959,57.7038301 48.4335615,57.5066363 L45.0890759,53.4641638 C44.695607,53.0697763 44.7939742,52.4781949 45.1874431,52.0838074 C45.580912,51.6894198 46.1711153,51.7880167 46.5645842,52.1824042 L49.3188665,55.4361016 L56.4996738,49.1259006 Z M50.9911093,41.8297308 C50.6960076,41.8297308 50.4009059,41.8297308 50.1058043,41.8297308 C50.3025387,40.745165 50.4009059,39.5620023 50.4009059,38.3788396 C50.4009059,28.5191505 42.3347936,20.4342055 32.4980713,20.4342055 C22.661349,20.4342055 14.5952367,28.4205537 14.5952367,38.3788396 C14.5952367,48.2385286 22.5629818,56.3234736 32.4980713,56.3234736 C34.9572519,56.3234736 37.3180653,55.8304892 39.5805114,54.8445203 C40.269082,60.5631399 45.0890759,65 50.9911093,65 C57.3849788,65 62.5000744,59.7743648 62.5000744,53.4641638 C62.5000744,47.0553659 57.3849788,41.8297308 50.9911093,41.8297308 Z M32.4980713,22.5047402 C41.2527542,22.5047402 48.4335615,29.6037163 48.4335615,38.4774365 C48.4335615,39.7591961 48.236827,41.0409556 47.9417254,42.2241183 C45.7776465,42.8156997 43.810302,44.0974592 42.3347936,45.7736064 C40.4658164,44.1960561 38.2033703,43.407281 35.7441897,43.407281 L29.251953,43.407281 C25.5139985,43.407281 22.0711457,45.4778157 20.3005357,48.7315131 C17.9397223,45.8722033 16.5625812,42.3227152 16.5625812,38.5760334 C16.5625812,29.7023132 23.7433885,22.5047402 32.4980713,22.5047402 Z M21.776044,50.2104664 C23.1531851,47.2525597 26.0058346,45.3792188 29.251953,45.3792188 L35.7441897,45.3792188 C37.8099014,45.3792188 39.6788786,46.069397 41.154387,47.3511566 C40.1707147,48.9287069 39.5805114,50.8020478 39.4821442,52.7739856 C33.678478,55.6332954 26.6944052,54.7459234 21.776044,50.2104664 Z M50.9911093,63.0280622 C45.6792792,63.0280622 41.4494886,58.689799 41.4494886,53.4641638 C41.4494886,48.2385286 45.7776465,43.9002655 50.9911093,43.9002655 C56.2045721,43.9002655 60.5327299,48.2385286 60.5327299,53.4641638 C60.5327299,58.689799 56.3029393,63.0280622 50.9911093,63.0280622 Z" fill-opacity="0.391276042" fill="#72C42A" fill-rule="nonzero"></path>
            </g>
        </g>
    </g>
</svg>