<?xml version="1.0" encoding="UTF-8"?>
<svg width="66px" height="40px" viewBox="0 0 66 40" version="1.1" xmlns="http://www.w3.org/2000/svg" xmlns:xlink="http://www.w3.org/1999/xlink">
    <!-- Generator: Sketch 47.1 (45422) - http://www.bohemiancoding.com/sketch -->
    <title>floors</title>
    <desc>Created with Sketch.</desc>
    <defs></defs>
    <g id="Page-1" stroke="none" stroke-width="1" fill="none" fill-rule="evenodd">
        <g id="category_menu" transform="translate(-824.000000, -219.000000)" fill-rule="nonzero" fill="#252525">
            <g transform="translate(91.000000, 47.000000)" id="6">
                <g transform="translate(710.000000, 145.000000)">
                    <path d="M76.3287333,27 L35.6903333,27 L23.0506,59.3187673 L23,67 L89,67 L89,59.3435723 L76.3287333,27 Z M74.5134314,30 L86,58 L79.9371975,58 L74.5894724,41.6563252 C74.4651747,41.2814309 74.0564546,40.9981138 73.6689383,41.1197398 C73.2850778,41.2413659 73.0745029,41.7593496 73.1980694,42.1349593 L78.4002932,58 L68.9301906,58 L64,30 L74.5134314,30 Z M37.8450567,30 L42.0296566,30 L36.8075775,43.7533008 C36.6778926,44.1289106 36.8942854,44.4823415 37.290126,44.6046829 C37.3685401,44.6290081 37.4469542,44.6146992 37.5246144,44.6146992 C37.8420408,44.6146992 38.1376017,44.5116748 38.2408972,44.2097561 L43.6152807,30 L50,30 L46.3952122,58 L26,58 L37.8450567,30 Z M48,58 L50.2691088,30 L59.3409339,30 L60.0532368,38.3860163 C60.0807475,38.7630569 60.4079013,39.0013008 60.7945375,39.0013008 C60.8116387,39.0013008 60.8294835,38.9755447 60.8465847,38.9748293 C61.2562704,38.9469268 61.5655795,38.6936585 61.5373253,38.3001626 L60.8324576,30 L62.3031625,30 L66,58 L48,58 Z M46,64 L26,64 L26,60 L46,60 L46,64 Z M66,64 L48,64 L48,60 L66,60 L66,64 Z M69,64 L69,60 L86,60 L86,64 L69,64 Z M34.5312055,40.0456265 C34.1602845,39.9031049 33.7530546,40.1055159 33.6192098,40.4989663 L30.043133,50.9826388 C29.9085763,51.3768473 30.0993763,51.8112348 30.4688734,51.9537563 C30.5493227,51.9848381 30.6319078,52 30.712357,52 C31.0028287,52 31.2762139,51.8089605 31.3808691,51.5011746 L34.9569459,41.0175021 C35.0915026,40.6232936 34.8999906,40.1889061 34.5312055,40.0456265 Z M53.4819881,42.7087334 C53.084875,42.6947367 52.7657301,43.0187011 52.7672723,43.4342914 L52.7991752,54.5110552 C52.800291,54.927594 53.1221187,55.276197 53.5178855,55.2906573 C53.6040711,55.293854 53.687093,55.2813028 53.7631593,55.2551111 C54.0378057,55.1605427 54.2341,54.8909058 54.2328482,54.5658161 L54.2009453,43.4890524 C54.1998295,43.0725135 53.8773286,42.7241423 53.4819881,42.7087334 Z M35.4659097,47.034159 C35.0615734,46.9121101 34.635876,47.1277054 34.5092348,47.5121228 L32.0351546,55.049919 C31.9092764,55.4343364 32.1320428,55.8450637 32.5340903,55.9663818 C32.6103802,55.9890375 32.6874329,56 32.7629599,56 C33.0879547,56 33.3877739,55.800483 33.4907652,55.4884179 L35.9648454,47.9506217 C36.0907236,47.5662043 35.8679572,47.155477 35.4659097,47.034159 Z M55.2643317,32.7996217 C54.8016713,32.8014622 54.412295,33.1442125 54.3874224,33.5634048 L53.947403,40.4446253 C53.923338,40.8635861 54.2757917,41.2027836 54.7358219,41.2009139 C54.8230106,41.2001979 54.9076857,41.1876684 54.9876323,41.1647441 C55.331645,41.0661001 55.5923434,40.7774821 55.6127311,40.4371308 L56.0527506,33.5559103 C56.0768156,33.1369495 55.7243618,32.797752 55.2643317,32.7996217 Z M44.3379906,42.0176963 C43.8833428,41.9282244 43.4345886,42.1867832 43.3352396,42.5954729 L41.0199036,52.0795004 C40.9197127,52.4881901 41.2076563,52.8930886 41.6614622,52.9825606 C41.7220819,52.9946923 41.7835435,53 41.8433213,53 C42.2297719,53 42.5783352,52.7588807 42.6650551,52.404784 L44.9803911,42.9207565 C45.0797401,42.512825 44.7917965,42.1079265 44.3379906,42.0176963 Z M53.189527,30.0067562 C52.6983938,29.9511095 52.2238778,30.2456659 52.1611014,30.6522576 L51.0071229,38.1675258 C50.9443465,38.5741175 51.3034646,38.9443533 51.8102919,38.9940644 C51.8481424,38.9985161 51.8859929,39 51.9238434,39 C52.3835884,39 52.7814802,38.7247345 52.8387175,38.348563 L53.992696,30.8332947 C54.0563956,30.4267031 53.6963543,30.0564672 53.189527,30.0067562 Z M71.1338896,52 C71.1875137,52 71.2402729,51.9954894 71.2947618,51.9864681 C71.7644049,51.9097876 72.0731758,51.5173635 71.9849555,51.1091522 L69.7145816,40.6121837 C69.6263613,40.2039724 69.1740163,39.9385975 68.7052382,40.012271 C68.2355951,40.0889515 67.9268242,40.4813756 68.0150445,40.8895869 L70.2854184,51.3865554 C70.3623949,51.748157 70.7256548,52 71.1338896,52 Z M70.3891708,41.3822936 C70.4823755,41.7529174 70.8151329,42 71.1814112,42 C71.2476357,42 71.3154953,41.9918185 71.3825373,41.9754554 C71.8199456,41.8641864 72.0848434,41.4191105 71.9752869,40.981398 L69.6108292,31.6176235 C69.5004552,31.179911 69.0540534,30.9156472 68.6174627,31.0244617 C68.1800544,31.1357306 67.9151566,31.5808065 68.0247131,32.018519 L70.3891708,41.3822936 Z M77.5785314,45.4890454 C77.6853964,45.803597 77.966466,46 78.2680302,46 C78.3485449,46 78.4319875,45.9854232 78.5125022,45.9555025 C78.8938492,45.8135706 79.0929402,45.3755 78.957529,44.9765565 L75.4214686,34.5111946 C75.2860575,34.1122511 74.8703087,33.9020386 74.4874978,34.0447376 C74.1061508,34.1866694 73.9070598,34.6247401 74.042471,35.0236836 L77.5785314,45.4890454 Z" id="floors"></path>
                </g>
            </g>
        </g>
    </g>
</svg>