<?xml version="1.0" encoding="UTF-8"?>
<svg width="57px" height="65px" viewBox="0 0 57 65" version="1.1" xmlns="http://www.w3.org/2000/svg" xmlns:xlink="http://www.w3.org/1999/xlink">
    <!-- Generator: Sketch 47.1 (45422) - http://www.bohemiancoding.com/sketch -->
    <title>guarantee_w</title>
    <desc>Created with Sketch.</desc>
    <defs></defs>
    <g id="Symbols" stroke="none" stroke-width="1" fill="none" fill-rule="evenodd">
        <g id="Artboard" transform="translate(-156.000000, -356.000000)" fill="#FFFFFF">
            <g id="guarantee_w" transform="translate(152.000000, 356.000000)">
                <rect id="size" fill-opacity="0" x="0" y="0" width="65" height="65"></rect>
                <path d="M56.173913,24.3476589 C56.0483598,34.8118657 51.1872723,44.6613021 42.9432903,51.155277 L33.2457751,57.8079932 C32.9863152,57.9802676 32.6805313,58.0702974 32.368675,58.0662317 C32.0486457,58.0737502 31.7339642,57.983639 31.4668679,57.8079932 L22.1028977,51.2044653 C13.8969219,44.6934465 9.14728653,34.7933481 9.21817366,24.3476589 L9.21817366,13.8090677 C9.21856731,13.2771285 9.56251084,12.8057469 10.0705667,12.6408459 L32.3069074,5.26260234 C32.5595555,5.17913255 32.8325312,5.17913255 33.0851793,5.26260234 L55.32152,12.6408459 C55.8295759,12.8057469 56.1735194,13.2771285 56.173913,13.8090677 L56.173913,24.3476589 Z M41.4238071,49.1877454 C49.0656497,43.1706745 53.5764091,34.0458281 53.7032085,24.3476589 L53.7032085,14.694457 L32.7022201,7.77120513 L11.7012317,14.694457 L11.7012317,24.3476589 C11.6130196,34.0370594 15.9985343,43.2303958 23.597674,49.286122 L32.3316144,55.4346582 L41.4238071,49.1877454 Z M43.4218063,54.3813755 C53.0270492,46.6777628 58.6698501,35.0465476 58.7826087,22.7302881 L58.7826087,10.4528705 L32.2616562,1.87575296 L5.74069046,10.4528749 L5.74060912,22.7524352 C5.63547632,35.0531297 11.142109,46.7246202 20.6862041,54.442076 L31.897104,62.6815861 L43.4218063,54.3813755 Z M31.8807595,65 L19.9746637,56.5115618 C9.7749509,48.2955112 3.88945454,35.8483542 4.00157333,22.7302881 L4.00157333,9.44939348 L32.2616562,0 L60.5217391,9.44939348 L60.5217391,22.7302881 C60.4014847,35.8779004 54.375336,48.2702882 44.1186041,56.462282 L31.8807595,65 Z M44.6249057,21.1621865 C44.1342612,20.6792712 43.3418519,20.6792712 42.8512074,21.1621865 L31.94485,31.9607979 L26.9130818,26.9787396 C26.4224373,26.4958242 25.6300281,26.4958242 25.1393836,26.9787396 L20.8875395,31.1512135 C20.3998057,31.6370108 20.3998057,32.4215917 20.8875395,32.907389 L31.0517111,42.9711468 C31.5423556,43.4540622 32.3347649,43.4540622 32.8254094,42.9711468 L48.8515909,27.1157462 C49.3393248,26.6299489 49.3393248,25.845368 48.8515909,25.3595707 L44.6249057,21.1621865 Z M35.2783964,37.0300423 L35.2783964,37.0300423 L32.2090178,40.081553 L31.9574294,40.3306559 L23.5795354,32.0355288 L26.019943,29.6192305 L31.0517111,34.6012888 L31.0517111,34.6012888 C31.2879106,34.8370805 31.6094354,34.96971 31.94485,34.96971 C32.2802645,34.96971 32.6017893,34.8370805 32.8379888,34.6012888 L32.8379888,34.6012888 L43.7317669,23.8151326 L46.1847538,26.2314309 L35.2783964,37.0300423 Z" id="guarantee" fill-rule="nonzero"></path>
            </g>
        </g>
    </g>
</svg>