<?xml version="1.0" encoding="UTF-8"?>
<svg width="20px" height="20px" viewBox="0 0 20 20" version="1.1" xmlns="http://www.w3.org/2000/svg" xmlns:xlink="http://www.w3.org/1999/xlink">
    <!-- Generator: Sketch 47.1 (45422) - http://www.bohemiancoding.com/sketch -->
    <title>ico_g</title>
    <desc>Created with Sketch.</desc>
    <defs></defs>
    <g id="Symbols" stroke="none" stroke-width="1" fill="none" fill-rule="evenodd">
        <g id="ico_g" fill="#14A31A">
            <path d="M12.2265625,10.1328125 C12.2265625,11.2161512 12.0000023,12.1809854 11.546875,13.0273438 C11.0937477,13.8737021 10.4479209,14.5351539 9.609375,15.0117188 C8.77082914,15.4882836 7.80990125,15.7265625 6.7265625,15.7265625 C5.95051695,15.7265625 5.20833688,15.5755223 4.5,15.2734375 C3.79166312,14.9713527 3.18229422,14.5651067 2.671875,14.0546875 C2.16145578,13.5442683 1.75520984,12.9348994 1.453125,12.2265625 C1.15104016,11.5182256 1,10.7760455 1,10 C1,9.22395445 1.15104016,8.48177438 1.453125,7.7734375 C1.75520984,7.06510062 2.16145578,6.45573172 2.671875,5.9453125 C3.18229422,5.43489328 3.79166312,5.02864734 4.5,4.7265625 C5.20833688,4.42447766 5.95051695,4.2734375 6.7265625,4.2734375 C8.21615328,4.2734375 9.49478633,4.7734325 10.5625,5.7734375 L9.0078125,7.265625 C8.39843445,6.67708039 7.63802539,6.3828125 6.7265625,6.3828125 C6.0859343,6.3828125 5.4934923,6.54426922 4.94921875,6.8671875 C4.4049452,7.19010578 3.97395992,7.62890348 3.65625,8.18359375 C3.33854008,8.73828402 3.1796875,9.34374672 3.1796875,10 C3.1796875,10.6562533 3.33854008,11.261716 3.65625,11.8164062 C3.97395992,12.3710965 4.4049452,12.8098942 4.94921875,13.1328125 C5.4934923,13.4557308 6.0859343,13.6171875 6.7265625,13.6171875 C7.15885633,13.6171875 7.55598777,13.5572923 7.91796875,13.4375 C8.27994973,13.3177077 8.57812383,13.1679696 8.8125,12.9882812 C9.04687617,12.8085929 9.25130121,12.6041678 9.42578125,12.375 C9.60026129,12.1458322 9.72786418,11.9296885 9.80859375,11.7265625 C9.88932332,11.5234365 9.94531234,11.3307301 9.9765625,11.1484375 L6.7265625,11.1484375 L6.7265625,9.1796875 L12.1328125,9.1796875 C12.1953128,9.50781414 12.2265625,9.8255193 12.2265625,10.1328125 Z M19,9.1796875 L19,10.8203125 L17.3671875,10.8203125 L17.3671875,12.453125 L15.7265625,12.453125 L15.7265625,10.8203125 L14.09375,10.8203125 L14.09375,9.1796875 L15.7265625,9.1796875 L15.7265625,7.546875 L17.3671875,7.546875 L17.3671875,9.1796875 L19,9.1796875 Z" id="G"></path>
        </g>
    </g>
</svg>