<?xml version="1.0" encoding="UTF-8"?>
<svg width="20px" height="20px" viewBox="0 0 20 20" version="1.1" xmlns="http://www.w3.org/2000/svg" xmlns:xlink="http://www.w3.org/1999/xlink">
    <!-- Generator: Sketch 47.1 (45422) - http://www.bohemiancoding.com/sketch -->
    <title>ico_ok</title>
    <desc>Created with Sketch.</desc>
    <defs></defs>
    <g id="Symbols" stroke="none" stroke-width="1" fill="none" fill-rule="evenodd">
        <g id="ico_ok" fill="#14A31A">
            <path d="M9.71428571,10.3839286 C8.5952325,10.3839286 7.63988491,9.9880992 6.84821429,9.19642857 C6.05654366,8.40475795 5.66071429,7.45238652 5.66071429,6.33928571 C5.66071429,5.2202325 6.05654366,4.26488491 6.84821429,3.47321429 C7.63988491,2.68154366 8.5952325,2.28571429 9.71428571,2.28571429 C10.8333389,2.28571429 11.7886865,2.68154366 12.5803571,3.47321429 C13.3720278,4.26488491 13.7678571,5.2202325 13.7678571,6.33928571 C13.7678571,7.45238652 13.3720278,8.40475795 12.5803571,9.19642857 C11.7886865,9.9880992 10.8333389,10.3839286 9.71428571,10.3839286 Z M9.71428571,4.33928571 C9.16666393,4.33928571 8.69791862,4.53422424 8.30803571,4.92410714 C7.91815281,5.31399004 7.72321429,5.78571152 7.72321429,6.33928571 C7.72321429,6.8869075 7.91815281,7.35565281 8.30803571,7.74553571 C8.69791862,8.13541862 9.16666393,8.33035714 9.71428571,8.33035714 C10.2619075,8.33035714 10.7306528,8.13541862 11.1205357,7.74553571 C11.5104186,7.35565281 11.7053571,6.8869075 11.7053571,6.33928571 C11.7053571,5.78571152 11.5104186,5.31399004 11.1205357,4.92410714 C10.7306528,4.53422424 10.2619075,4.33928571 9.71428571,4.33928571 Z M14.3839286,10.875 C14.4613099,11.0357151 14.5059523,11.183035 14.5178571,11.3169643 C14.529762,11.4508935 14.5163692,11.571428 14.4776786,11.6785714 C14.4389879,11.7857148 14.3601196,11.900297 14.2410714,12.0223214 C14.1220232,12.1443458 13.9955364,12.2544638 13.8616071,12.3526786 C13.7276779,12.4508933 13.544644,12.574404 13.3125,12.7232143 C12.6279728,13.1577403 11.6904821,13.4374994 10.5,13.5625 L11.1517857,14.2053571 L13.5357143,16.5892857 C13.7142866,16.7738104 13.8035714,16.9940463 13.8035714,17.25 C13.8035714,17.5059537 13.7142866,17.7232134 13.5357143,17.9017857 L13.4285714,18.0178571 C13.2440467,18.1964295 13.0238108,18.2857143 12.7678571,18.2857143 C12.5119035,18.2857143 12.2916676,18.1964295 12.1071429,18.0178571 C11.7083313,17.6130932 10.9136964,16.8154821 9.72321429,15.625 L7.33928571,18.0178571 C7.15476098,18.1964295 6.93452509,18.2857143 6.67857143,18.2857143 C6.42261777,18.2857143 6.20535804,18.1964295 6.02678571,18.0178571 L5.91964286,17.9017857 C5.73511812,17.7232134 5.64285714,17.5059537 5.64285714,17.25 C5.64285714,16.9940463 5.73511812,16.7738104 5.91964286,16.5892857 L8.94642857,13.5625 C7.7380892,13.4374994 6.79464625,13.1577403 6.11607143,12.7232143 C5.88392741,12.574404 5.70089353,12.4508933 5.56696429,12.3526786 C5.43303504,12.2544638 5.30654821,12.1443458 5.1875,12.0223214 C5.06845179,11.900297 4.98958353,11.7857148 4.95089286,11.6785714 C4.91220219,11.571428 4.89880946,11.4508935 4.91071429,11.3169643 C4.92261911,11.183035 4.96726152,11.0357151 5.04464286,10.875 C5.10416696,10.7559518 5.18749946,10.6517862 5.29464286,10.5625 C5.40178625,10.4732138 5.526785,10.4077383 5.66964286,10.3660714 C5.81250071,10.3244046 5.97916571,10.3303569 6.16964286,10.3839286 C6.36012,10.4375003 6.55357045,10.5416659 6.75,10.6964286 C6.77976205,10.7202382 6.82440446,10.752976 6.88392857,10.7946429 C6.94345268,10.8363097 7.07142759,10.9092257 7.26785714,11.0133929 C7.4642867,11.11756 7.66964179,11.2083329 7.88392857,11.2857143 C8.09821536,11.3630956 8.37202214,11.4345235 8.70535714,11.5 C9.03869214,11.5654765 9.3749983,11.5982143 9.71428571,11.5982143 C10.2559551,11.5982143 10.7738071,11.5223222 11.2678571,11.3705357 C11.7619072,11.2187492 12.1190465,11.0684531 12.3392857,10.9196429 L12.6785714,10.6964286 C12.875001,10.5416659 13.0684514,10.4375003 13.2589286,10.3839286 C13.4494057,10.3303569 13.6160707,10.3244046 13.7589286,10.3660714 C13.9017864,10.4077383 14.0267852,10.4732138 14.1339286,10.5625 C14.241072,10.6517862 14.3244045,10.7559518 14.3839286,10.875 Z" id="Ok"></path>
        </g>
    </g>
</svg>