<?xml version="1.0" encoding="UTF-8"?>
<svg width="20px" height="20px" viewBox="0 0 20 20" version="1.1" xmlns="http://www.w3.org/2000/svg" xmlns:xlink="http://www.w3.org/1999/xlink">
    <!-- Generator: Sketch 47.1 (45422) - http://www.bohemiancoding.com/sketch -->
    <title>ico_vk</title>
    <desc>Created with Sketch.</desc>
    <defs></defs>
    <g id="Symbols" stroke="none" stroke-width="1" fill="none" fill-rule="evenodd">
        <g id="ico_vk" fill="#14A31A">
            <path d="M18.125,5.70663268 C18.2619054,6.08758696 17.8154813,6.96257821 16.7857143,8.33163268 C16.6428564,8.52210982 16.449406,8.77508348 16.2053571,9.09056125 C15.9672607,9.39413419 15.8035719,9.60841776 15.7142857,9.73341839 C15.6249996,9.85841901 15.5342267,10.005739 15.4419643,10.1753827 C15.3497019,10.3450264 15.313988,10.4700251 15.3348214,10.5503827 C15.3556549,10.6307402 15.394345,10.7334178 15.4508929,10.8584184 C15.5074408,10.983419 15.604166,11.1113939 15.7410714,11.242347 C15.8779769,11.3733 16.047618,11.5310365 16.25,11.7155612 C16.2738096,11.7274661 16.2886904,11.7393707 16.2946429,11.7512755 C17.1339328,12.5310413 17.7023795,13.1887729 18,13.7244898 C18.0178572,13.7542519 18.0372023,13.7914539 18.0580357,13.836097 C18.0788692,13.88074 18.0997023,13.9596083 18.1205357,14.0727041 C18.1413692,14.1857999 18.1398811,14.2869894 18.1160714,14.3762755 C18.0922618,14.4655617 18.0178578,14.5474061 17.8928571,14.6218112 C17.7678565,14.6962164 17.592263,14.7334184 17.3660714,14.7334184 L15.0803571,14.7691327 C14.9374993,14.7988947 14.7708343,14.7840139 14.5803571,14.7244898 C14.38988,14.6649657 14.2351196,14.5994902 14.1160714,14.5280612 L13.9375,14.4209184 C13.7589277,14.2959178 13.5505964,14.1054435 13.3125,13.8494898 C13.0744036,13.5935362 12.8705366,13.3628837 12.7008929,13.1575255 C12.5312492,12.9521674 12.3497033,12.77955 12.15625,12.6396684 C11.9627967,12.4997867 11.7946436,12.4536562 11.6517857,12.5012755 C11.6339285,12.5072279 11.6101192,12.5176445 11.5803571,12.5325255 C11.5505951,12.5474066 11.5000004,12.5905609 11.4285714,12.6619898 C11.3571425,12.7334187 11.293155,12.8212155 11.2366071,12.9253827 C11.1800592,13.0295499 11.1294645,13.1843102 11.0848214,13.3896684 C11.0401783,13.5950266 11.0208333,13.825679 11.0267857,14.0816327 C11.0267857,14.1709188 11.0163692,14.2527633 10.9955357,14.3271684 C10.9747023,14.4015735 10.9523811,14.4566325 10.9285714,14.492347 L10.8928571,14.5369898 C10.7857137,14.6500856 10.6279772,14.7155612 10.4196429,14.7334184 L9.39285714,14.7334184 C8.97023598,14.757228 8.53571652,14.7081214 8.08928571,14.586097 C7.64285491,14.4640725 7.25148978,14.306336 6.91517857,14.1128827 C6.57886737,13.9194293 6.27232281,13.7230027 5.99553571,13.523597 C5.71874862,13.3241912 5.50892929,13.153062 5.36607143,13.0102041 L5.14285714,12.7959184 C5.08333304,12.7363943 5.00148862,12.6471095 4.89732143,12.5280612 C4.79315424,12.409013 4.58035875,12.1381824 4.25892857,11.7155612 C3.93749839,11.2929401 3.62202536,10.8435398 3.3125,10.367347 C3.00297464,9.8911541 2.63839496,9.26318419 2.21875,8.48341839 C1.79910504,7.70365259 1.41071607,6.89413687 1.05357143,6.05484696 C1.01785696,5.95960839 1,5.87925205 1,5.81377553 C1,5.74829901 1.00892848,5.70068044 1.02678571,5.67091839 L1.0625,5.61734696 C1.15178616,5.50425116 1.32142732,5.4477041 1.57142857,5.4477041 L4.01785714,5.42984696 C4.08928607,5.44175178 4.15773777,5.46109683 4.22321429,5.48788268 C4.2886908,5.51466852 4.33630937,5.53996589 4.36607143,5.56377553 L4.41071429,5.59056125 C4.50595286,5.65603776 4.57738071,5.75127491 4.625,5.87627553 C4.74404821,6.17389607 4.88095161,6.4819287 5.03571429,6.80038268 C5.19047696,7.11883665 5.31249955,7.36139375 5.40178571,7.52806125 L5.54464286,7.78698982 C5.71726277,8.14413446 5.88392777,8.45365518 6.04464286,8.71556125 C6.20535795,8.97746732 6.34970174,9.18133433 6.47767857,9.32716839 C6.6056554,9.47300245 6.72916607,9.58758464 6.84821429,9.67091839 C6.9672625,9.75425214 7.06845196,9.79591839 7.15178571,9.79591839 C7.23511946,9.79591839 7.3154758,9.78103759 7.39285714,9.75127553 C7.40476196,9.74532312 7.41964277,9.73044232 7.4375,9.70663268 C7.45535723,9.68282303 7.49107116,9.6173475 7.54464286,9.5102041 C7.59821455,9.40306071 7.63839272,9.26318116 7.66517857,9.09056125 C7.69196442,8.91794134 7.72023795,8.67687232 7.75,8.36734696 C7.77976205,8.0578216 7.77976205,7.68580151 7.75,7.25127553 C7.73809518,7.0131791 7.71130973,6.79591937 7.66964286,6.59948982 C7.62797598,6.40306026 7.58630973,6.26615687 7.54464286,6.18877553 L7.49107143,6.08163268 C7.34226116,5.87925071 7.0892875,5.7512758 6.73214286,5.6977041 C6.65476152,5.68579928 6.66964232,5.61437143 6.77678571,5.48341839 C6.87202429,5.37032259 6.98511839,5.28103776 7.11607143,5.21556125 C7.4315492,5.06079857 8.14285161,4.98937071 9.25,5.00127553 C9.73809768,5.00722794 10.1398794,5.04591803 10.4553571,5.11734696 C10.5744054,5.14710901 10.6741067,5.18728718 10.7544643,5.23788268 C10.8348218,5.28847817 10.8958331,5.35990602 10.9375,5.45216839 C10.9791669,5.54443076 11.0104166,5.6396679 11.03125,5.73788268 C11.0520834,5.83609745 11.0625,5.97151276 11.0625,6.14413268 C11.0625,6.31675259 11.0595238,6.48044143 11.0535714,6.6352041 C11.047619,6.78996678 11.0401786,6.99978611 11.03125,7.26466839 C11.0223214,7.52955067 11.0178571,7.77508393 11.0178571,8.00127553 C11.0178571,8.06675205 11.014881,8.1917508 11.0089286,8.37627553 C11.0029762,8.56080026 11.0014881,8.70365598 11.0044643,8.80484696 C11.0074405,8.90603794 11.0178571,9.02657245 11.0357143,9.1664541 C11.0535715,9.30633576 11.0877974,9.42240602 11.1383929,9.51466839 C11.1889883,9.60693076 11.255952,9.67984669 11.3392857,9.73341839 C11.386905,9.74532321 11.4374997,9.75722785 11.4910714,9.76913268 C11.5446431,9.7810375 11.6220233,9.74829973 11.7232143,9.67091839 C11.8244053,9.59353705 11.9374994,9.49085951 12.0625,9.36288268 C12.1875006,9.23490584 12.342261,9.03550308 12.5267857,8.76466839 C12.7113104,8.4938337 12.9136894,8.17389643 13.1339286,7.80484696 C13.4910732,7.18579625 13.8095224,6.51616009 14.0892857,5.79591839 C14.1130954,5.73639428 14.142857,5.68431147 14.1785714,5.63966839 C14.2142859,5.59502531 14.2470237,5.56377562 14.2767857,5.54591839 L14.3125,5.51913268 L14.3571429,5.49681125 C14.3750001,5.48788263 14.4136902,5.47895415 14.4732143,5.47002553 C14.5327384,5.46109692 14.5922616,5.45960884 14.6517857,5.46556125 L17.2232143,5.4477041 C17.4553583,5.41794205 17.6458326,5.42538245 17.7946429,5.47002553 C17.9434531,5.51466861 18.0357141,5.56377526 18.0714286,5.61734696 L18.125,5.70663268 Z" id="VK"></path>
        </g>
    </g>
</svg>