<?xml version="1.0" encoding="UTF-8"?>
<svg width="423px" height="500px" viewBox="0 0 423 500" version="1.1" xmlns="http://www.w3.org/2000/svg" xmlns:xlink="http://www.w3.org/1999/xlink">
    <!-- Generator: Sketch 47.1 (45422) - http://www.bohemiancoding.com/sketch -->
    <title>logo_gost</title>
    <desc>Created with Sketch.</desc>
    <defs></defs>
    <g id="Symbols" stroke="none" stroke-width="1" fill="none" fill-rule="evenodd">
        <g id="Why-us?-LG" transform="translate(-182.000000, -185.000000)" fill-rule="nonzero" fill="#EBEFF5">
            <g id="Why-us?">
                <path d="M264.656251,504.012096 C257.111091,504.012096 251,510.274306 251,517.994915 C251,525.726657 257.111091,531.988867 264.656251,531.988867 L305.918335,531.988867 C305.961792,531.988867 305.994384,532 306.026977,532 L364.487029,532 L414.364393,532 L471.966176,532 C471.998768,532 472.031361,531.988867 472.074818,531.988867 L513.347766,531.988867 C520.882062,531.988867 526.993153,525.726657 526.993153,517.994915 C526.993153,510.274306 520.882062,504.012096 513.347766,504.012096 L485.616995,504.012096 L485.616995,418.695748 L505.932976,432.166457 C512.255918,436.363529 520.713668,434.515482 524.809456,428.013916 C528.905245,421.534616 527.09093,412.867718 520.757124,408.681778 L396.39507,326.265528 C391.886443,323.276367 386.084981,323.276367 381.570922,326.265528 L339.705877,354.00851 L339.705877,337.993952 C339.705877,330.26221 333.594786,324 326.06049,324 L306.021545,324 C298.487249,324 292.376158,330.26221 292.376158,337.993952 L292.376158,385.386357 L257.236029,408.687344 C250.902223,412.884417 249.098772,421.540183 253.194561,428.019482 C255.801959,432.160891 260.185648,434.40972 264.661683,434.40972 C267.198464,434.40972 269.773271,433.691653 272.054745,432.172023 L292.370726,418.701314 L292.370726,504.012096 L264.656251,504.012096 L264.656251,504.012096 Z M401,503 L379,503 L379,455 L401,455 L401,503 Z M320,399.836756 L389.489107,354 L459,399.836756 L459,502.994447 L428.629154,502.994447 L428.629154,441.130931 C428.629154,433.417428 422.501607,427.16999 414.936129,427.16999 L364.924451,427.16999 C357.369867,427.16999 351.24232,433.417428 351.24232,441.130931 L351.24232,503 L320,503 L320,399.836756 Z M591.472792,513.947712 C562.096261,590.601072 489.352517,642.499835 408.846091,648.930745 L423.908259,660.11326 C430.097198,664.705194 431.341682,673.388023 426.687422,679.483072 C423.930582,683.094953 419.722773,685 415.47032,685 C412.523738,685 409.571575,684.09703 407.043541,682.225018 L359.072292,646.607249 C356.784227,645.682255 354.814258,644.212175 353.329806,642.340164 L348.597416,638.821884 C344.958834,636.112973 342.877252,631.82937 343.005607,627.336543 C343.145124,622.83821 345.500157,618.697761 349.294997,616.214593 L410.966737,576.037925 C417.440288,571.831405 426.123776,573.587792 430.398553,579.963643 C434.662168,586.339494 432.881941,594.91771 426.419551,599.12423 L391.44005,621.913216 C467.236409,622.160982 537.904153,575.531381 565.238166,504.169205 C595.568987,424.977617 565.533941,333.816168 493.811454,287.406803 C487.332322,283.211295 485.524192,274.638584 489.776646,268.251722 C494.040261,261.859354 502.72933,260.075437 509.19172,264.270945 C591.813211,317.722376 626.407647,422.736709 591.472792,513.947712 Z M368.064439,190.466912 C372.761343,184.35457 381.520734,183.197432 387.675681,187.859201 L445.513261,231.863637 C449.119415,234.609762 451.167354,238.922728 450.989272,243.446083 C450.81119,247.969438 448.446043,252.121845 444.628418,254.585606 L382.75061,294.564976 C380.402159,296.076452 377.764324,296.801739 375.154315,296.801739 C370.579843,296.801739 366.088846,294.570513 363.417621,290.462399 C359.210442,284.028937 361.046909,275.408541 367.524629,271.222915 L394.025405,254.103927 C318.785908,254.24234 248.79982,301.020584 221.647934,372.475196 C191.407444,452.096208 221.375246,543.770272 292.880593,590.454395 C299.341618,594.662167 301.144695,603.293636 296.904126,609.716025 C294.216206,613.785383 289.747469,616 285.206387,616 C282.562988,616 279.914023,615.26364 277.543311,613.718945 C195.163854,559.942511 160.654969,454.355117 195.481062,362.636761 C226.545179,280.9174 306.197762,227.240625 392.172242,226.310485 L370.685579,209.961077 C364.552892,205.304845 363.378666,196.568181 368.064439,190.466912 Z" id="logo_gost"></path>
            </g>
        </g>
    </g>
</svg>