<?xml version="1.0" encoding="UTF-8"?>
<svg width="195px" height="65px" viewBox="0 0 195 65" version="1.1" xmlns="http://www.w3.org/2000/svg" xmlns:xlink="http://www.w3.org/1999/xlink">
    <!-- Generator: Sketch 47.1 (45422) - http://www.bohemiancoding.com/sketch -->
    <title>Logo</title>
    <desc>Created with Sketch.</desc>
    <defs></defs>
    <g id="Symbols" stroke="none" stroke-width="1" fill="none" fill-rule="evenodd">
        <g id="Logo">
            <g id="name" transform="translate(67.000000, 13.000000)">
                <path d="M4.19726563,2.48925781 C3.66405983,2.48925781 3.24365388,2.80142917 2.93603516,3.42578125 C2.62841643,4.05013333 2.47460938,4.91828871 2.47460938,6.03027344 C2.47460938,8.34538918 3.07844448,9.50292969 4.28613281,9.50292969 C4.81478129,9.50292969 5.36848669,9.33431158 5.94726563,8.99707031 L5.94726563,10.6513672 C5.45963298,10.9749365 4.83529026,11.1367188 4.07421875,11.1367188 C2.94856208,11.1367188 2.08382463,10.6889693 1.47998047,9.79345703 C0.876136304,8.89794474 0.57421875,7.63900551 0.57421875,6.01660156 C0.57421875,4.39419762 0.885250796,3.12956183 1.50732422,2.22265625 C2.12939764,1.31575067 2.99413509,0.862304688 4.1015625,0.862304688 C4.46614766,0.862304688 4.81591629,0.912434395 5.15087891,1.01269531 C5.48584152,1.11295623 5.84472465,1.28841021 6.22753906,1.5390625 L5.61230469,3.04980469 C5.40722554,2.90852794 5.18847772,2.77978574 4.95605469,2.66357422 C4.72363165,2.5473627 4.47070449,2.48925781 4.19726563,2.48925781 Z M11.9423828,3.38476562 L11.9423828,4.85449219 L10.2470703,4.85449219 L10.2470703,11 L8.42871094,11 L8.42871094,4.85449219 L6.73339844,4.85449219 L6.73339844,3.38476562 L11.9423828,3.38476562 Z M16.3652344,11.1367188 C16.0371077,11.1367188 15.7465833,11.0626635 15.4936523,10.9145508 C15.2407214,10.7664381 15.0048839,10.5055357 14.7861328,10.1318359 L14.6904297,10.1318359 C14.7633467,10.7516307 14.7998047,11.1253249 14.7998047,11.2529297 L14.7998047,14.3632812 L12.9677734,14.3632812 L12.9677734,3.38476562 L14.3759766,3.38476562 L14.6904297,4.37597656 L14.7724609,4.37597656 C15.150718,3.61946236 15.6998662,3.24121094 16.4199219,3.24121094 C17.1126337,3.24121094 17.654946,3.58414371 18.046875,4.27001953 C18.438804,4.95589536 18.6347656,5.92544946 18.6347656,7.17871094 C18.6347656,8.41374315 18.4319682,9.38215795 18.0263672,10.0839844 C17.6207662,10.7858108 17.0670608,11.1367188 16.3652344,11.1367188 Z M15.8046875,4.78613281 C15.449217,4.78613281 15.1928719,4.95133298 15.0356445,5.28173828 C14.8784172,5.61214358 14.7952474,6.16015242 14.7861328,6.92578125 L14.7861328,7.16503906 C14.7861328,8.00358492 14.8658846,8.6142559 15.0253906,8.99707031 C15.1848966,9.37988473 15.4492169,9.57128906 15.8183594,9.57128906 C16.4563834,9.57128906 16.7753906,8.7646565 16.7753906,7.15136719 C16.7753906,6.35839447 16.6967781,5.76595248 16.5395508,5.37402344 C16.3823234,4.98209439 16.1373715,4.78613281 15.8046875,4.78613281 Z M25.5527344,7.17871094 C25.5527344,8.4274151 25.2884141,9.39924783 24.7597656,10.0942383 C24.2311171,10.7892287 23.506515,11.1367188 22.5859375,11.1367188 C22.0026012,11.1367188 21.4876324,10.9772151 21.0410156,10.6582031 C20.5943988,10.3391911 20.2503267,9.88004857 20.0087891,9.28076172 C19.7672514,8.68147487 19.6464844,7.98079828 19.6464844,7.17871094 C19.6464844,5.94367872 19.908526,4.97868186 20.4326172,4.28369141 C20.9567083,3.58870095 21.6835891,3.24121094 22.6132812,3.24121094 C23.5110722,3.24121094 24.2254205,3.59553682 24.7563477,4.30419922 C25.2872748,5.01286162 25.5527344,5.97102261 25.5527344,7.17871094 Z M21.5058594,7.17871094 C21.5058594,7.97168365 21.5924471,8.57096151 21.765625,8.9765625 C21.9388029,9.38216349 22.216795,9.58496094 22.5996094,9.58496094 C23.3287797,9.58496094 23.6933594,8.78288563 23.6933594,7.17871094 C23.6933594,6.38118091 23.6056324,5.78532098 23.4301758,5.39111328 C23.2547192,4.99690558 22.9778665,4.79980469 22.5996094,4.79980469 C22.216795,4.79980469 21.9388029,4.99690558 21.765625,5.39111328 C21.5924471,5.78532098 21.5058594,6.38118091 21.5058594,7.17871094 Z M28.5195312,3.38476562 L28.5195312,6.91210938 C28.5195312,7.34961156 28.4648443,8.07649231 28.3554688,9.09277344 L30.8300781,3.38476562 L33.0585938,3.38476562 L33.0585938,11 L31.3632813,11 L31.3632813,7.41796875 C31.3632813,6.88020564 31.4156896,6.15560352 31.5205078,5.24414062 L29.0390625,11 L26.8310547,11 L26.8310547,3.38476562 L28.5195312,3.38476562 Z M39.2929688,3.38476562 L39.2929688,4.85449219 L37.5976562,4.85449219 L37.5976562,11 L35.7792969,11 L35.7792969,4.85449219 L34.0839844,4.85449219 L34.0839844,3.38476562 L39.2929688,3.38476562 Z M43.1279297,11.1367188 C42.175451,11.1367188 41.4246447,10.7983432 40.8754883,10.121582 C40.3263319,9.44482083 40.0517578,8.48665984 40.0517578,7.24707031 C40.0517578,5.98925152 40.3001277,5.00716499 40.796875,4.30078125 C41.2936223,3.59439751 41.9863237,3.24121094 42.875,3.24121094 C43.7044312,3.24121094 44.358396,3.54312849 44.8369141,4.14697266 C45.3154321,4.75081682 45.5546875,5.59732528 45.5546875,6.68652344 L45.5546875,7.65722656 L41.8974609,7.65722656 C41.9111329,8.33626642 42.0501289,8.84098142 42.3144531,9.17138672 C42.5787774,9.50179202 42.9433571,9.66699219 43.4082031,9.66699219 C44.000654,9.66699219 44.6067677,9.48242372 45.2265625,9.11328125 L45.2265625,10.6103516 C44.6432262,10.9612648 43.943689,11.1367188 43.1279297,11.1367188 Z M42.8613281,4.64257812 C42.6015612,4.64257812 42.3873706,4.78043482 42.21875,5.05615234 C42.0501294,5.33186987 41.9521486,5.75911169 41.9248047,6.33789062 L43.7705078,6.33789062 C43.7613932,5.78189826 43.6770841,5.360353 43.5175781,5.07324219 C43.3580721,4.78613138 43.1393243,4.64257812 42.8613281,4.64257812 Z M52.2744141,11 L50.4492187,11 L50.4492187,4.85449219 L49.4306641,4.85449219 C49.3395178,6.39942179 49.1925466,7.62532099 48.9897461,8.53222656 C48.7869456,9.43913214 48.5157895,10.0976542 48.1762695,10.5078125 C47.8367496,10.9179708 47.3867216,11.1230469 46.8261719,11.1230469 C46.4843733,11.1230469 46.2041027,11.0729172 45.9853516,10.9726562 L45.9853516,9.47558594 C46.122071,9.52115908 46.261067,9.54394531 46.4023437,9.54394531 C46.7851582,9.54394531 47.0836578,9.05518067 47.2978516,8.07763672 C47.5120453,7.10009277 47.6761062,5.53581805 47.7900391,3.38476562 L52.2744141,3.38476562 L52.2744141,11 Z M55.6308594,6.36523438 L56.2734375,6.36523438 C57.2897186,6.36523438 58.0382463,6.54980284 58.519043,6.91894531 C58.9998396,7.28808778 59.2402344,7.84635043 59.2402344,8.59375 C59.2402344,10.1979247 58.233083,11 56.21875,11 L53.8125,11 L53.8125,3.38476562 L55.6308594,3.38476562 L55.6308594,6.36523438 Z M57.3671875,8.63476562 C57.3671875,8.3111963 57.270346,8.07877675 57.0766602,7.9375 C56.8829743,7.79622325 56.5742209,7.72558594 56.1503906,7.72558594 L55.6308594,7.72558594 L55.6308594,9.63964844 L56.1777344,9.63964844 C56.5559915,9.63964844 56.8487945,9.56331457 57.0561523,9.41064453 C57.2635102,9.2579745 57.3671875,8.99935078 57.3671875,8.63476562 Z M62.2412109,3.38476562 L62.2412109,6.3515625 L64.2988281,6.3515625 L64.2988281,3.38476562 L66.1308594,3.38476562 L66.1308594,11 L64.2988281,11 L64.2988281,7.80761719 L62.2412109,7.80761719 L62.2412109,11 L60.4228516,11 L60.4228516,3.38476562 L62.2412109,3.38476562 Z M71.3945312,11 L71.0322266,9.9609375 L70.9912109,9.9609375 C70.7223294,10.4075543 70.4443374,10.7151684 70.1572266,10.8837891 C69.8701158,11.0524097 69.5078147,11.1367188 69.0703125,11.1367188 C68.5097628,11.1367188 68.0688493,10.9270854 67.7475586,10.5078125 C67.4262679,10.0885396 67.265625,9.50521207 67.265625,8.7578125 C67.265625,7.95572516 67.4855121,7.35986523 67.925293,6.97021484 C68.3650738,6.58056446 69.0224566,6.36523458 69.8974609,6.32421875 L70.9091797,6.28320312 L70.9091797,5.73632812 C70.9091797,5.02538707 70.6015656,4.66992188 69.9863281,4.66992188 C69.5305967,4.66992188 69.0065134,4.84765447 68.4140625,5.203125 L67.7851562,3.9453125 C68.5416704,3.46679448 69.3642534,3.22753906 70.2529297,3.22753906 C71.0595743,3.22753906 71.6736633,3.4588193 72.0952148,3.92138672 C72.5167664,4.38395414 72.7275391,5.03905826 72.7275391,5.88671875 L72.7275391,11 L71.3945312,11 Z M69.8154297,9.71484375 C70.1481136,9.71484375 70.4135732,9.56559394 70.6118164,9.26708984 C70.8100596,8.96858575 70.9091797,8.57096603 70.9091797,8.07421875 L70.9091797,7.43164062 L70.3486328,7.45898438 C69.9339172,7.48177095 69.629721,7.60025935 69.4360352,7.81445312 C69.2423493,8.0286469 69.1455078,8.34765413 69.1455078,8.77148438 C69.1455078,9.40039377 69.3688129,9.71484375 69.8154297,9.71484375 Z M75.5234375,11 L73.4658203,11 L75.359375,7.87597656 C74.4433548,7.51139141 73.9853516,6.80273964 73.9853516,5.75 C73.9853516,5.00715774 74.2325822,4.42724818 74.7270508,4.01025391 C75.2215194,3.59325963 75.9016884,3.38476562 76.7675781,3.38476562 L79.5703125,3.38476562 L79.5703125,11 L77.7519531,11 L77.7519531,8.12890625 L77.0957031,8.12890625 L75.5234375,11 Z M75.8310547,5.76367188 C75.8310547,6.44726904 76.2093061,6.7890625 76.9658203,6.7890625 L77.7519531,6.7890625 L77.7519531,4.74511719 L76.8154297,4.74511719 C76.1591764,4.74511719 75.8310547,5.08463202 75.8310547,5.76367188 Z M87.5410156,11.1367188 C86.5338491,11.1276041 85.7431669,10.7766962 85.1689453,10.0839844 C84.5947237,9.39127258 84.3076172,8.42285778 84.3076172,7.17871094 C84.3076172,5.93456409 84.5913058,4.97184585 85.1586914,4.29052734 C85.7260771,3.60920883 86.5201772,3.2594402 87.5410156,3.24121094 L87.5410156,0.36328125 L89.2089844,0.36328125 L89.2089844,3.24121094 C90.2571667,3.2594402 91.0581027,3.60465159 91.6118164,4.27685547 C92.1655301,4.94905935 92.4423828,5.91633483 92.4423828,7.17871094 C92.4423828,8.41830047 92.1598336,9.38557595 91.5947266,10.0805664 C91.0296196,10.7755569 90.2343801,11.1276041 89.2089844,11.1367188 L89.2089844,14.3632812 L87.5410156,14.3632812 L87.5410156,11.1367188 Z M86.0849609,7.17871094 C86.0849609,7.96256902 86.2137031,8.57210069 86.4711914,9.00732422 C86.7286797,9.44254775 87.0852842,9.66699212 87.5410156,9.68066406 L87.5410156,4.69726562 C87.0852842,4.71093757 86.7286797,4.93082469 86.4711914,5.35693359 C86.2137031,5.7830425 86.0849609,6.39029554 86.0849609,7.17871094 Z M89.2089844,9.68066406 C89.6601585,9.67154943 90.0156237,9.44482644 90.2753906,9.00048828 C90.5351575,8.55615012 90.6650391,7.94889708 90.6650391,7.17871094 C90.6650391,6.39029554 90.5385755,5.7830425 90.2856445,5.35693359 C90.0327136,4.93082469 89.6738304,4.71093757 89.2089844,4.69726562 L89.2089844,9.68066406 Z M95.4023437,3.38476562 L95.4023437,6.91210938 C95.4023437,7.34961156 95.3476568,8.07649231 95.2382812,9.09277344 L97.7128906,3.38476562 L99.9414062,3.38476562 L99.9414062,11 L98.2460937,11 L98.2460937,7.41796875 C98.2460937,6.88020564 98.2985021,6.15560352 98.4033203,5.24414062 L95.921875,11 L93.7138672,11 L93.7138672,3.38476562 L95.4023437,3.38476562 Z M104.883789,11.1367188 C104.555662,11.1367188 104.265138,11.0626635 104.012207,10.9145508 C103.759276,10.7664381 103.523439,10.5055357 103.304688,10.1318359 L103.208984,10.1318359 C103.281901,10.7516307 103.318359,11.1253249 103.318359,11.2529297 L103.318359,14.3632812 L101.486328,14.3632812 L101.486328,3.38476562 L102.894531,3.38476562 L103.208984,4.37597656 L103.291016,4.37597656 C103.669273,3.61946236 104.218421,3.24121094 104.938477,3.24121094 C105.631188,3.24121094 106.173501,3.58414371 106.56543,4.27001953 C106.957359,4.95589536 107.15332,5.92544946 107.15332,7.17871094 C107.15332,8.41374315 106.950523,9.38215795 106.544922,10.0839844 C106.139321,10.7858108 105.585615,11.1367188 104.883789,11.1367188 Z M104.323242,4.78613281 C103.967772,4.78613281 103.711427,4.95133298 103.554199,5.28173828 C103.396972,5.61214358 103.313802,6.16015242 103.304688,6.92578125 L103.304688,7.16503906 C103.304688,8.00358492 103.384439,8.6142559 103.543945,8.99707031 C103.703451,9.37988473 103.967772,9.57128906 104.336914,9.57128906 C104.974938,9.57128906 105.293945,8.7646565 105.293945,7.15136719 C105.293945,6.35839447 105.215333,5.76595248 105.058105,5.37402344 C104.900878,4.98209439 104.655926,4.78613281 104.323242,4.78613281 Z M116.299805,11 L114.672852,11 L114.672852,4.81347656 C114.540689,5.5517615 114.353842,6.38118029 114.112305,7.30175781 L113.121094,11 L111.576172,11 L110.584961,7.28808594 C110.370767,6.49055591 110.18392,5.66569437 110.024414,4.81347656 L110.024414,11 L108.431641,11 L108.431641,3.38476562 L111.049805,3.38476562 L111.972656,6.93945312 C112.173178,7.73242584 112.293945,8.47069971 112.334961,9.15429688 C112.35319,8.92187384 112.402181,8.59603074 112.481934,8.17675781 C112.561687,7.75748488 112.651692,7.34505411 112.751953,6.93945312 L113.695312,3.38476562 L116.299805,3.38476562 L116.299805,11 Z M121.556641,11 L121.194336,9.9609375 L121.15332,9.9609375 C120.884439,10.4075543 120.606447,10.7151684 120.319336,10.8837891 C120.032225,11.0524097 119.669924,11.1367188 119.232422,11.1367188 C118.671872,11.1367188 118.230959,10.9270854 117.909668,10.5078125 C117.588377,10.0885396 117.427734,9.50521207 117.427734,8.7578125 C117.427734,7.95572516 117.647621,7.35986523 118.087402,6.97021484 C118.527183,6.58056446 119.184566,6.36523458 120.05957,6.32421875 L121.071289,6.28320312 L121.071289,5.73632812 C121.071289,5.02538707 120.763675,4.66992188 120.148438,4.66992188 C119.692706,4.66992188 119.168623,4.84765447 118.576172,5.203125 L117.947266,3.9453125 C118.70378,3.46679448 119.526363,3.22753906 120.415039,3.22753906 C121.221684,3.22753906 121.835773,3.4588193 122.257324,3.92138672 C122.678876,4.38395414 122.889648,5.03905826 122.889648,5.88671875 L122.889648,11 L121.556641,11 Z M119.977539,9.71484375 C120.310223,9.71484375 120.575683,9.56559394 120.773926,9.26708984 C120.972169,8.96858575 121.071289,8.57096603 121.071289,8.07421875 L121.071289,7.43164062 L120.510742,7.45898438 C120.096027,7.48177095 119.79183,7.60025935 119.598145,7.81445312 C119.404459,8.0286469 119.307617,8.34765413 119.307617,8.77148438 C119.307617,9.40039377 119.530922,9.71484375 119.977539,9.71484375 Z" id="Строительная-фирма" fill="#14A31A"></path>
                <path d="M16.0351562,35 L11.3828125,35 L11.3828125,28.015625 L6.00390625,28.015625 L6.00390625,35 L1.3515625,35 L1.3515625,17.8671875 L6.00390625,17.8671875 L6.00390625,24.21875 L11.3828125,24.21875 L11.3828125,17.8671875 L16.0351562,17.8671875 L16.0351562,35 Z M28.1289062,35 L27.25,33.2421875 L27.15625,33.2421875 C26.5390594,34.0078163 25.9101595,34.5312486 25.2695312,34.8125 C24.628903,35.0937514 23.8007863,35.234375 22.7851562,35.234375 C21.53515,35.234375 20.5507848,34.8593788 19.8320312,34.109375 C19.1132777,33.3593713 18.7539062,32.3046943 18.7539062,30.9453125 C18.7539062,29.5312429 19.2460888,28.4785191 20.2304688,27.7871094 C21.2148487,27.0956997 22.6406157,26.7070317 24.5078125,26.6210938 L26.7226562,26.5507812 L26.7226562,26.3632812 C26.7226562,25.2695258 26.1835991,24.7226562 25.1054688,24.7226562 C24.1367139,24.7226562 22.9062575,25.050778 21.4140625,25.7070312 L20.0898438,22.6835938 C21.6367265,21.8867148 23.589832,21.4882812 25.9492188,21.4882812 C27.6523523,21.4882812 28.9706985,21.910152 29.9042969,22.7539062 C30.8378953,23.5976605 31.3046875,24.7773362 31.3046875,26.2929688 L31.3046875,35 L28.1289062,35 Z M24.7304688,32 C25.285159,32 25.7597637,31.8242205 26.1542969,31.4726562 C26.5488301,31.121092 26.7460938,30.6640653 26.7460938,30.1015625 L26.7460938,29.0703125 L25.6914062,29.1171875 C24.1835862,29.1718753 23.4296875,29.7265572 23.4296875,30.78125 C23.4296875,31.5937541 23.8632769,32 24.7304688,32 Z M36.8945312,35.234375 C35.8007758,35.234375 34.8007858,35.1171887 33.8945312,34.8828125 L33.8945312,31.203125 C34.6289099,31.4921889 35.5585881,31.6367188 36.6835938,31.6367188 C37.1679712,31.6367188 37.5761702,31.5253917 37.9082031,31.3027344 C38.240236,31.080077 38.5117177,30.6875028 38.7226562,30.125 L33.1328125,17.8671875 L38.125,17.8671875 L40.234375,23.09375 C40.3125004,23.296876 40.4082026,23.5390611 40.5214844,23.8203125 C40.6347662,24.1015639 40.7460932,24.3925766 40.8554688,24.6933594 C40.9648443,24.9941421 41.0664058,25.2929673 41.1601562,25.5898438 C41.2539067,25.8867202 41.3281247,26.1445302 41.3828125,26.3632812 L41.546875,26.3632812 C41.8125013,25.3007759 42.2070286,24.0586009 42.7304688,22.6367188 L44.4765625,17.8671875 L49.46875,17.8671875 L44.265625,29.890625 C43.6171843,31.3906325 42.9804719,32.4941371 42.3554688,33.2011719 C41.7304656,33.9082067 40.9824262,34.4238265 40.1113281,34.7480469 C39.24023,35.0722672 38.1679751,35.234375 36.8945312,35.234375 Z M58.7382812,35.234375 C58.0664029,35.234375 57.4648464,35.123048 56.9335938,34.9003906 C56.4023411,34.6777333 55.8750026,34.2773466 55.3515625,33.6992188 L55.140625,33.6992188 C55.2812507,34.6289109 55.3515625,35.2070301 55.3515625,35.4335938 L55.3515625,40.765625 L50.7695312,40.765625 L50.7695312,21.7226562 L54.4960938,21.7226562 L55.140625,23.4101562 L55.3515625,23.4101562 C56.2031293,22.1288998 57.3788988,21.4882812 58.8789062,21.4882812 C60.3476636,21.4882812 61.4999958,22.0976502 62.3359375,23.3164062 C63.1718792,24.5351623 63.5898438,26.2070206 63.5898438,28.3320312 C63.5898438,30.472667 63.1543012,32.158197 62.2832031,33.3886719 C61.412105,34.6191468 60.2304762,35.234375 58.7382812,35.234375 Z M57.203125,25.0859375 C56.5312466,25.0859375 56.0605482,25.3261695 55.7910156,25.8066406 C55.521483,26.2871118 55.3750001,26.9999953 55.3515625,27.9453125 L55.3515625,28.3085938 C55.3515625,29.4492245 55.5039047,30.273435 55.8085938,30.78125 C56.1132828,31.289065 56.5937467,31.5429688 57.25,31.5429688 C57.8359404,31.5429688 58.2617174,31.2910181 58.5273438,30.7871094 C58.7929701,30.2832006 58.9257812,29.4492246 58.9257812,28.2851562 C58.9257812,27.1445255 58.7929701,26.3261744 58.5273438,25.8300781 C58.2617174,25.3339819 57.8203156,25.0859375 57.203125,25.0859375 Z M78.8828125,28.3320312 C78.8828125,30.5039171 78.298834,32.1972596 77.1308594,33.4121094 C75.9628848,34.6269592 74.3281355,35.234375 72.2265625,35.234375 C70.2109274,35.234375 68.6074278,34.6132875 67.4160156,33.3710938 C66.2246034,32.1289 65.6289062,30.4492293 65.6289062,28.3320312 C65.6289062,26.1679579 66.2128848,24.4863341 67.3808594,23.2871094 C68.548834,22.0878846 70.1874895,21.4882812 72.296875,21.4882812 C73.601569,21.4882812 74.7539012,21.7656222 75.7539062,22.3203125 C76.7539113,22.8750028 77.5253879,23.6699167 78.0683594,24.7050781 C78.6113308,25.7402396 78.8828125,26.9492118 78.8828125,28.3320312 Z M70.28125,28.3320312 C70.28125,29.472662 70.4335922,30.3417939 70.7382812,30.9394531 C71.0429703,31.5371124 71.5546839,31.8359375 72.2734375,31.8359375 C72.9843786,31.8359375 73.4863267,31.5371124 73.7792969,30.9394531 C74.0722671,30.3417939 74.21875,29.472662 74.21875,28.3320312 C74.21875,27.1992131 74.070314,26.3437529 73.7734375,25.765625 C73.476561,25.1874971 72.9687536,24.8984375 72.25,24.8984375 C71.5468715,24.8984375 71.0429703,25.185544 70.7382812,25.7597656 C70.4335922,26.3339872 70.28125,27.1914005 70.28125,28.3320312 Z M94.5039062,25.15625 C94.5039062,25.9296914 94.277346,26.57031 93.8242188,27.078125 C93.3710915,27.58594 92.7500039,27.9062493 91.9609375,28.0390625 L91.9609375,28.1328125 C92.9140673,28.242188 93.6445287,28.5683567 94.1523438,29.1113281 C94.6601588,29.6542996 94.9140625,30.3515582 94.9140625,31.203125 C94.9140625,33.7343877 92.8515831,35 88.7265625,35 L81.4960938,35 L81.4960938,21.7226562 L88.75,21.7226562 C90.6796971,21.7226562 92.121089,22.0039034 93.0742188,22.5664062 C94.0273485,23.1289091 94.5039062,23.9921817 94.5039062,25.15625 Z M90.2617188,30.7578125 C90.2617188,30.3437479 90.1210952,30.0468759 89.8398438,29.8671875 C89.5585923,29.6874991 89.1523464,29.5976562 88.6210938,29.5976562 L86.078125,29.5976562 L86.078125,32 L88.5742188,32 C89.6992244,32 90.2617188,31.5859416 90.2617188,30.7578125 Z M89.9453125,25.765625 C89.9453125,25.070309 89.5234417,24.7226562 88.6796875,24.7226562 L86.078125,24.7226562 L86.078125,26.7148438 L88.5039062,26.7148438 C88.9882837,26.7148438 89.3496082,26.6250009 89.5878906,26.4453125 C89.8261731,26.2656241 89.9453125,26.0390639 89.9453125,25.765625 Z M102.15625,21.7226562 L102.15625,26.5039062 L105.789062,26.5039062 L105.789062,21.7226562 L110.371094,21.7226562 L110.371094,35 L105.789062,35 L105.789062,29.9140625 L102.15625,29.9140625 L102.15625,35 L97.5742188,35 L97.5742188,21.7226562 L102.15625,21.7226562 Z M119.945312,35.234375 C117.734364,35.234375 116.017584,34.6464903 114.794922,33.4707031 C113.57226,32.294916 112.960938,30.6211046 112.960938,28.4492188 C112.960938,26.20702 113.527338,24.4863341 114.660156,23.2871094 C115.792974,22.0878846 117.410146,21.4882812 119.511719,21.4882812 C121.511729,21.4882812 123.056635,22.0097604 124.146484,23.0527344 C125.236334,24.0957083 125.78125,25.5976464 125.78125,27.5585938 L125.78125,29.5976562 L117.589844,29.5976562 C117.621094,30.3398475 117.892576,30.9218729 118.404297,31.34375 C118.916018,31.7656271 119.613277,31.9765625 120.496094,31.9765625 C121.300785,31.9765625 122.041012,31.9003914 122.716797,31.7480469 C123.392582,31.5957024 124.124996,31.3359393 124.914062,30.96875 L124.914062,34.2617188 C124.195309,34.6289081 123.453129,34.8828118 122.6875,35.0234375 C121.921871,35.1640632 121.007818,35.234375 119.945312,35.234375 Z M119.675781,24.6054688 C119.136716,24.6054688 118.685549,24.7753889 118.322266,25.1152344 C117.958983,25.4550798 117.746094,25.9882776 117.683594,26.7148438 L121.621094,26.7148438 C121.605469,26.0742155 121.42383,25.5625019 121.076172,25.1796875 C120.728514,24.7968731 120.261722,24.6054688 119.675781,24.6054688 Z" id="НаУровне" fill="#252525"></path>
            </g>
            <g id="mark">
                <path d="M10.7812501,41.3669548 C9.79709879,41.3669548 9,42.1798378 9,43.1820323 C9,44.1856718 9.79709879,44.9985549 10.7812501,44.9985549 L16.1632611,44.9985549 C16.1689294,44.9985549 16.1731806,45 16.1774318,45 L23.8026559,45 L30.3083991,45 L37.8216751,45 C37.8259263,45 37.8301775,44.9985549 37.8358458,44.9985549 L43.2192739,44.9985549 C44.2020081,44.9985549 44.9991069,44.1856718 44.9991069,43.1820323 C44.9991069,42.1798378 44.2020081,41.3669548 43.2192739,41.3669548 L39.6022167,41.3669548 L39.6022167,30.2922365 L42.2521273,32.0408382 C43.0768589,32.5856504 44.1800436,32.3457596 44.7142769,31.5018064 C45.2485102,30.6607434 45.0118605,29.5357133 44.1857119,28.9923462 L27.9645744,18.294083 C27.3764926,17.9060669 26.6197802,17.9060669 26.0309898,18.294083 L20.5703317,21.8953355 L20.5703317,19.8165226 C20.5703317,18.812883 19.773233,18 18.7904987,18 L16.1767232,18 C15.193989,18 14.3968902,18.812883 14.3968902,19.8165226 L14.3968902,25.9684213 L9.81339503,28.9930688 C8.98724642,29.537881 8.75201371,30.661466 9.28624703,31.502529 C9.62634251,32.0401156 10.198128,32.3320309 10.7819586,32.3320309 C11.1128432,32.3320309 11.4486875,32.2388203 11.746271,32.0415607 L14.3961817,30.292959 L14.3961817,41.3669548 L10.7812501,41.3669548 L10.7812501,41.3669548 Z M28.5278575,41.3669548 L25.5831975,41.3669548 L25.5831975,35.1319614 L28.5278575,35.1319614 L28.5278575,41.3669548 Z M17.9579733,27.9439077 L26.9974278,21.9798753 L36.0397165,27.9439077 L36.0397165,41.3662322 L32.0889406,41.3662322 L32.0889406,33.3168839 C32.0889406,32.3132443 31.2918419,31.5003613 30.3076905,31.5003613 L23.8019474,31.5003613 C22.8192131,31.5003613 22.0221143,32.3132443 22.0221143,33.3168839 L22.0221143,41.3669548 L17.9579733,41.3669548 L17.9579733,27.9439077 Z" id="house" fill="#252525" fill-rule="nonzero"></path>
                <path d="M53.2445608,42.7591587 C49.4323393,52.7259078 39.9923113,59.4739739 29.5449125,60.3101442 L31.4995451,61.7641355 C32.3026898,62.3611955 32.4641878,63.4901685 31.8601998,64.282669 C31.5024419,64.7522989 30.9563904,65 30.4045453,65 C30.0221644,65 29.6390593,64.8825925 29.3109939,64.6391868 L23.0857173,60.0080347 C22.7887928,59.8877636 22.533148,59.6966185 22.3405092,59.4532128 L21.7263823,58.9957532 C21.2541998,58.6435308 20.9840709,58.0865612 21.0007277,57.5023874 C21.0188328,56.9174977 21.3244478,56.3791415 21.8169081,56.056271 L29.8201109,50.8323543 C30.6601901,50.2854073 31.787055,50.5137792 32.3417969,51.3427905 C32.8950905,52.1718018 32.6640687,53.2871728 31.8254379,53.8341198 L27.2861134,56.7972267 C37.1222821,56.8294421 46.2929054,50.7664916 49.8400674,41.4877217 C53.7761281,31.1909431 49.8784503,19.3377996 40.5709521,13.3034851 C39.7301487,12.7579699 39.4955059,11.6433148 40.047351,10.8128717 C40.6006445,9.98171266 41.7282336,9.74976131 42.5668644,10.2952765 C53.2887373,17.2452262 57.7780916,30.8995722 53.2445608,42.7591587 Z M24.2091278,0.71031803 C24.8202491,-0.0838610366 25.9599468,-0.234208342 26.7607763,0.37149707 L34.2861121,6.08901086 C34.7553142,6.44581595 35.0217746,7.00620136 34.9986042,7.59392264 C34.9754337,8.18164392 34.6677008,8.72116775 34.1709838,9.04128522 L26.1199679,14.2358206 C25.8144072,14.4322073 25.4711946,14.5264441 25.1316023,14.5264441 C24.5364107,14.5264441 23.9520803,14.2365399 23.6045232,13.702771 C23.0571208,12.8668688 23.2960663,11.7468173 24.1388923,11.2029773 L27.5869486,8.97870045 C17.797423,8.99668458 8.69142643,15.0746003 5.15865311,24.3587262 C1.22401688,34.7039157 5.12317333,46.6151629 14.426843,52.6808494 C15.2674968,53.2275669 15.5020978,54.3490571 14.9503509,55.1835206 C14.6006216,55.712254 14.0191875,56 13.4283404,56 C13.0844036,56 12.7397428,55.9043244 12.4312859,55.7036216 C1.71276908,48.7164284 -2.77723448,34.9974166 1.75404149,23.0804144 C5.79584117,12.4625856 16.1595601,5.488341 27.3458308,5.36748767 L24.5501682,3.24320254 C23.752235,2.63821649 23.5994547,1.50305837 24.2091278,0.71031803 Z" id="arrow" fill="#72C42A"></path>
            </g>
        </g>
    </g>
</svg>