<?xml version="1.0" encoding="UTF-8"?>
<svg width="65px" height="65px" viewBox="0 0 65 65" version="1.1" xmlns="http://www.w3.org/2000/svg" xmlns:xlink="http://www.w3.org/1999/xlink">
    <!-- Generator: Sketch 47.1 (45422) - http://www.bohemiancoding.com/sketch -->
    <title>money_w</title>
    <desc>Created with Sketch.</desc>
    <defs></defs>
    <g id="Symbols" stroke="none" stroke-width="1" fill="none" fill-rule="evenodd">
        <g id="Artboard" transform="translate(-152.000000, -472.000000)" fill="#FFFFFF">
            <g id="money_w" transform="translate(152.000000, 472.000000)">
                <rect id="size" fill-opacity="0" x="0" y="0" width="65" height="65"></rect>
                <path d="M64.9816441,39.3345274 C65.1077113,40.7240036 64.5798314,42.0953092 63.5393176,43.0813462 L48.6840262,57.1616593 C46.6254815,59.096608 43.8375588,60.176468 40.93661,60.161782 L22.5912446,60.1617761 L22.4095234,60.1617761 L17.6369646,64.6727747 C17.3391508,64.9550514 16.9057091,65.0651329 16.4994797,64.9619625 C16.0932503,64.8587921 15.775949,64.558044 15.6671001,64.1730069 C15.5582513,63.7879698 15.6743916,63.3771402 15.9717722,63.0952735 L21.0742313,58.259002 C21.2946462,58.0506129 21.5939509,57.9336106 21.9058258,57.9341386 L40.9342622,57.9341392 C43.2311158,57.9432131 45.4377512,57.0787187 47.0588465,55.5339875 L61.9132805,41.4544892 C62.8987975,40.4589245 62.8727681,38.9168883 61.8642568,37.9609895 C60.8557454,37.0050907 59.2288359,36.9804192 58.188578,37.9052493 L46.4464019,49.1471654 C45.4911037,50.0421428 44.2400551,50.5330207 42.9346487,50.5382117 L31.6012832,50.5382081 C30.9522808,50.5382081 30.4261604,50.0395346 30.4261604,49.4243896 C30.4261604,48.8092447 30.9522808,48.3105712 31.6012832,48.3105712 L42.9429518,48.3105712 C44.1719278,48.3050063 45.232488,47.4977742 45.5031111,46.3635331 C45.6752698,45.6258524 45.4855905,44.855981 44.98784,44.2683961 C44.4900896,43.6808112 43.7380053,43.3389483 42.9429813,43.3388976 L23.3792193,43.3388976 C21.4530317,43.3335506 19.6032906,44.0587876 18.2430466,45.3531683 L15.3892181,48.0519943 C15.0785599,48.3929429 14.627428,48.5307855 14.1983058,48.4323343 C13.7691837,48.3338831 13.4344955,48.0157539 13.3318433,47.6087407 C13.2291911,47.2017276 13.3758999,46.7745233 13.7116524,46.5027666 L16.5914656,43.7811304 C18.3899487,42.066509 20.8355497,41.1055853 23.3846458,41.1112596 L42.9429518,41.1112608 C44.955678,41.105471 46.7694371,42.2574937 47.5285383,44.0229807 L47.7783625,44.6040118 L56.4749633,36.3610995 C57.8519038,35.0561118 59.9037329,34.6290444 61.7308704,35.2671464 C63.5580078,35.9052484 64.8269684,37.4920547 64.9816441,39.3345274 Z M47.4243724,13.9219317 C48.4123728,14.3062447 49.2068502,15.050286 49.6426678,15.992769 L49.7068653,16.1542318 C50.1172487,17.1863835 50.0709922,18.3382686 49.579097,19.3359376 L47.3084499,23.9360125 L47.184205,24.1877187 L50.1459208,28.7358271 C50.7516142,29.6684516 50.933625,30.805055 50.6482097,31.8740512 C50.3627944,32.9430473 49.6355382,33.8486095 48.6398858,34.3747686 L43.1077839,37.2835917 C42.6597182,37.5362066 42.1228406,37.5313598 41.6930516,37.2783259 C41.2632626,37.025292 41.0086541,36.5641594 41.0285557,36.0748286 C41.0484574,35.5854978 41.3397163,35.1454939 41.7887043,34.9264744 L47.3357813,32.0100446 C47.6613831,31.8391383 47.899701,31.5435304 47.9933166,31.1942066 C48.0869322,30.8448828 48.027412,30.4733128 47.829014,30.1685058 L44.4605945,24.9994326 C44.2074142,24.6088962 44.1782689,24.1174179 44.3841187,23.699948 L47.1016431,18.1762614 C47.2629054,17.867804 47.2872242,17.4956998 47.1634361,17.1584798 C47.039648,16.8212598 46.7787222,16.5488063 46.4422502,16.4054319 L40.5819466,14.1464289 C40.1394474,13.975546 39.8186281,13.5934733 39.7339503,13.1362665 L38.5521842,7.11312093 C38.4857208,6.76214319 38.2710595,6.45100776 37.9599918,6.25706628 C37.6489241,6.0631248 37.2693256,6.00375696 36.9117015,6.09311741 L30.8551522,7.62192789 C30.394225,7.73927752 29.9049934,7.61539075 29.5615436,7.2948784 L25.0197365,3.06351271 C24.7536655,2.81415801 24.3917149,2.68357689 24.0218411,2.70413046 C23.6519674,2.72468404 23.307558,2.894517 23.071263,3.17287345 L19.0668719,7.89904237 C18.7647998,8.25713081 18.2946375,8.43572629 17.8249849,8.37135257 L11.5927484,7.55134164 C11.2249508,7.49982922 10.8478177,7.60621321 10.5616221,7.8440159 C10.2812792,8.0681591 10.1060101,8.40574175 10.0860486,8.76821561 L9.69272348,14.8776896 C9.65544345,15.3228858 9.3837238,15.7275812 8.97179094,15.9431418 L3.4378284,18.8529434 C3.11222661,19.0238497 2.87390878,19.3194575 2.78029317,19.6687813 C2.68667757,20.0181051 2.74619778,20.3896751 2.9445958,20.6944821 L6.31301525,25.8635554 C6.5661955,26.2540918 6.5953408,26.74557 6.389491,27.1630399 L3.67196667,32.6867266 C3.51226509,33.0135077 3.49896751,33.3889711 3.63467636,33.7245124 C3.77038521,34.0600537 4.04289925,34.3255053 4.38705434,34.4573918 L10.2295089,36.7091749 C10.686844,36.8857169 11.0130778,37.2870935 11.0850638,37.7620106 C11.1570498,38.2369278 10.9638517,38.7132344 10.5782453,39.0115102 C10.1926388,39.3097861 9.67320691,39.3847161 9.21561448,39.2080748 L3.37196736,36.955833 C2.31541244,36.5494773 1.48001425,35.732948 1.06562823,34.7017911 C0.651242201,33.6706342 0.695216528,32.5177869 1.18701288,31.5195258 L3.45763115,26.9195095 L3.58183564,26.6678852 L0.620119769,22.1197768 C0.025069557,21.1916731 -0.151785584,20.0616 0.133205068,18.9991589 C0.418195721,17.9367179 1.13979181,17.0360046 2.12774405,16.5095282 L6.74193749,14.0891343 L6.99430112,13.9567552 L7.33759673,8.58275898 C7.40772642,7.47737253 7.94581334,6.45042359 8.8229798,5.74769033 C9.70014627,5.04495707 10.8373753,4.72974315 11.9622596,4.87755369 L17.147327,5.55691399 L17.4309738,5.59407809 L20.9435997,1.44305732 C21.6662838,0.59190921 22.719721,0.0714835687 23.8515515,0.00682586573 C24.9833821,-0.0578318372 26.0918843,0.339089423 26.9120796,1.10270884 L30.6967282,4.62497703 L30.9024396,4.81642689 L36.2570418,3.5007784 C37.3592487,3.22353909 38.5270266,3.40561364 39.4833092,4.0026691 C40.4395917,4.59972457 41.098185,5.55794575 41.3012506,6.64768536 L42.2398767,11.6691266 L42.2912195,11.943799 L47.4243724,13.9219317 Z M23.2862388,30.1888547 L31.3157128,30.1888547 L31.3157128,31.9844246 L23.2862388,31.9844246 L23.2862388,35.2518773 L20.8625163,35.2518773 L20.8625163,31.9844246 L17.0346852,31.9844246 L17.0346852,30.1888547 L20.8625163,30.1888547 L20.8625163,27.4625035 L17.0346852,27.4625035 L17.0346852,25.3606099 L20.8625163,25.3606099 L20.8625163,15.7187072 L28.8852256,15.7187072 C30.7499792,15.7187072 32.2482906,16.2648764 33.4095956,17.3574836 C34.5671413,18.446554 35.143544,19.8467683 35.143544,21.5906053 C35.143544,23.3344424 34.5671413,24.7346567 33.4095956,25.823727 C32.2482906,26.9163343 30.7499792,27.4625035 28.8852256,27.4625035 L23.2862388,27.4625035 L23.2862388,30.1888547 Z M32.6301067,21.5906053 C32.6301067,20.4846704 32.251719,19.5646718 31.4986091,18.8638862 C30.7500962,18.1673782 29.7696882,17.8206007 28.5861763,17.8206007 L23.2862388,17.8206007 L23.2862388,25.3606099 L28.5861763,25.3606099 C29.7696882,25.3606099 30.7500962,25.0138325 31.4986091,24.3173245 C32.251719,23.6165388 32.6301067,22.6965403 32.6301067,21.5906053 Z" id="money" fill-rule="nonzero"></path>
            </g>
        </g>
    </g>
</svg>