<?xml version="1.0" encoding="UTF-8"?>
<svg width="66px" height="53px" viewBox="0 0 66 53" version="1.1" xmlns="http://www.w3.org/2000/svg" xmlns:xlink="http://www.w3.org/1999/xlink">
    <!-- Generator: Sketch 47.1 (45422) - http://www.bohemiancoding.com/sketch -->
    <title>smart_g</title>
    <desc>Created with Sketch.</desc>
    <defs></defs>
    <g id="Page-1" stroke="none" stroke-width="1" fill="none" fill-rule="evenodd">
        <g id="category_menu" transform="translate(-824.000000, -417.000000)" fill-rule="nonzero" fill="#14A31A">
            <g id="category_menu-activ" transform="translate(91.000000, 397.000000)">
                <g id="3" transform="translate(710.000000, 0.000000)">
                    <path d="M78.2708142,69.9770722 L78.2708142,41.3022441 L81.135596,41.3022441 L81.135596,71.4098724 C81.135596,72.2009614 80.4942941,72.8422632 79.7032051,72.8422632 L32.7412474,72.8422632 C31.9501584,72.8422632 31.3088566,72.2009614 31.3088566,71.4098724 L31.3088566,41.3022441 L34.1736383,41.3022441 L34.1736383,69.9770722 L78.2708142,69.9770722 Z M56.6523528,20.1069519 C56.6523528,20.1069519 67.3338961,26.045508 88.6969827,37.9226202 C89.0516646,38.4048125 89.09498,38.8870049 88.8269289,39.3691973 C88.5588779,39.8513896 88.0516043,40.2038037 87.3051081,40.4264394 L55.9562108,22.9979259 L24.6073136,40.4264394 C23.7995346,40.0935631 23.303122,39.7606868 23.1180758,39.4278105 C22.9330297,39.0949342 22.9654841,38.5932041 23.2154389,37.9226202 L55.2604781,20.1069519 C55.6930602,19.8663102 56.6523528,20.1069519 56.6523528,20.1069519 Z M67.7509265,39.3676979 L65.9309716,38.3171416 C65.4877489,38.0613575 64.9418034,38.0613575 64.4985807,38.3171416 L62.6786258,39.3676979 C62.2354031,39.623482 61.9624304,40.0965803 61.9624304,40.6081484 L61.9624304,42.7096705 C61.9624304,43.2212386 62.2354031,43.6943369 62.6786258,43.9501209 L63.7717446,44.5811914 L63.7717446,50.3664135 L57.6349729,55.3863296 L57.6349729,41.0378657 L58.747736,40.3953361 C59.1909587,40.139552 59.4639314,39.6664538 59.4639314,39.1548856 L59.4639314,37.0533636 C59.4639314,36.5417954 59.1909587,36.0686972 58.747736,35.8129131 L56.9277811,34.7619474 C56.4845584,34.5061633 55.9386129,34.5061633 55.4953902,34.7619474 L53.6754353,35.8129131 C53.2322127,36.0686972 52.9592399,36.5417954 52.9592399,37.0533636 L52.9592399,39.1548856 C52.9592399,39.6664538 53.2322127,40.139552 53.6754353,40.3953361 L54.7706004,41.0276343 L54.7706004,51.2790511 L48.6514267,46.2738682 L48.6514267,44.5811914 L49.7445455,43.9501209 C50.1877682,43.6943369 50.460741,43.2212386 50.460741,42.7096705 L50.460741,40.6081484 C50.460741,40.0965803 50.1877682,39.623482 49.7445455,39.3676979 L47.9245906,38.3171416 C47.481368,38.0613575 46.9354224,38.0613575 46.4921997,38.3171416 L44.6722448,39.3676979 C44.2290222,39.623482 43.9560494,40.0965803 43.9560494,40.6081484 L43.9560494,42.7096705 C43.9560494,43.2212386 44.2290222,43.6943369 44.6722448,43.9501209 L45.7870542,44.5938783 L45.7870542,46.9528215 C45.7870542,47.3825387 45.9798131,47.7893377 46.312537,48.061492 L54.7710097,54.9803491 L54.7710097,66.5180529 L57.6357914,66.5180529 L57.6357914,59.0872184 L66.1118621,52.1540373 C66.444586,51.8818831 66.6373449,51.475084 66.6373449,51.0453668 L66.6373449,44.5942876 L67.7521542,43.9505302 C68.1953769,43.6947461 68.4683497,43.2216479 68.4683497,42.7100797 L68.4683497,40.6085577 C68.4671219,40.0965803 68.1941491,39.6238913 67.7509265,39.3676979 Z M46.8200126,41.4356611 L47.2075767,41.2117989 L47.5951407,41.4356611 L47.5951407,41.8833856 L47.2075767,42.1072478 L46.8200126,41.8833856 L46.8200126,41.4356611 Z M55.8236124,37.880467 L56.2111764,37.6566047 L56.5987404,37.880467 L56.5987404,38.3281914 L56.2111764,38.5520537 L55.8236124,38.3281914 L55.8236124,37.880467 Z M64.8272121,41.4356611 L65.2147761,41.2117989 L65.6023402,41.4356611 L65.6023402,41.8833856 L65.2147761,42.1072478 L64.8272121,41.8833856 L64.8272121,41.4356611 Z M67.7509265,57.6515535 L65.9309716,56.6005878 C65.4877489,56.3448037 64.9418034,56.3448037 64.4985807,56.6005878 L62.6786258,57.6515535 C62.2354031,57.9073375 61.9624304,58.3804358 61.9624304,58.892004 L61.9624304,60.993526 C61.9624304,61.5050941 62.2354031,61.9781924 62.6786258,62.2339765 L63.7823853,62.8711858 L63.7823853,66.5176437 L66.647167,66.5176437 L66.647167,62.8711858 L67.7509265,62.2339765 C68.1941491,61.9781924 68.4671219,61.5050941 68.4671219,60.993526 L68.4671219,58.892004 C68.4671219,58.3804358 68.1941491,57.9077468 67.7509265,57.6515535 Z M64.8272121,59.7191074 L65.2147761,59.4952451 L65.6023402,59.7191074 L65.6023402,60.1668318 L65.2147761,60.3906941 L64.8272121,60.1668318 L64.8272121,59.7191074 Z M49.7547769,53.5590081 L47.934822,52.5080425 C47.4915993,52.2522584 46.9456538,52.2522584 46.5024311,52.5080425 L44.6824762,53.5590081 C44.2392535,53.8147922 43.9662808,54.2878905 43.9662808,54.7994586 L43.9662808,56.9009806 C43.9662808,57.4125488 44.2392535,57.8856471 44.6824762,58.1414311 L45.7862357,58.7786404 L45.7862357,66.5176437 L48.6510174,66.5176437 L48.6510174,58.7786404 L49.7547769,58.1414311 C50.1979995,57.8856471 50.4709723,57.4125488 50.4709723,56.9009806 L50.4709723,54.7994586 C50.4709723,54.2878905 50.1979995,53.8152015 49.7547769,53.5590081 Z M46.8306532,55.626562 L47.2182173,55.4026998 L47.6057813,55.626562 L47.6057813,56.0742865 L47.2182173,56.2981487 L46.8306532,56.0742865 L46.8306532,55.626562 Z" id="smart_g"></path>
                </g>
            </g>
        </g>
    </g>
</svg>