<?xml version="1.0" encoding="UTF-8"?>
<svg width="65px" height="65px" viewBox="0 0 65 65" version="1.1" xmlns="http://www.w3.org/2000/svg" xmlns:xlink="http://www.w3.org/1999/xlink">
    <!-- Generator: Sketch 47.1 (45422) - http://www.bohemiancoding.com/sketch -->
    <title>time_w</title>
    <desc>Created with Sketch.</desc>
    <defs></defs>
    <g id="Symbols" stroke="none" stroke-width="1" fill="none" fill-rule="evenodd">
        <g id="Artboard" transform="translate(-151.000000, -589.000000)" fill="#FFFFFF">
            <g id="time_w" transform="translate(151.000000, 589.000000)">
                <rect id="size" fill-opacity="0" x="1" y="0" width="65" height="65"></rect>
                <path d="M2,10 L2,7 L15,7 L15,20 L12,20 L12,11.3311189 C6.24525143,16.7798056 3,24.3981178 3,32.5 C3,48.7238576 16.2761424,62 32.5,62 C48.7238576,62 62,48.7238576 62,32.5 C62,16.2761424 48.7238576,3 32.5,3 L32,3 L32,0 L32.5,0 C50.3761424,0 65,14.6238576 65,32.5 C65,50.3761424 50.3761424,65 32.5,65 C14.6238576,65 0,50.3761424 0,32.5 C0,24.0444018 3.25324826,15.9951622 9.08400739,10 L2,10 Z M31,4 L34,4 L34,9 L31,9 L31,4 Z M31,56 L34,56 L34,61 L31,61 L31,56 Z M4,31 L9,31 L9,34 L4,34 L4,31 Z M56,31 L61,31 L61,34 L56,34 L56,31 Z M42.9071068,40.8 L40.8,42.9071068 L31,33.1071068 L31,12 L34,12 L34,31.8928932 L42.9071068,40.8 Z" id="time" fill-rule="nonzero"></path>
            </g>
        </g>
    </g>
</svg>