<?xml version="1.0" encoding="UTF-8"?>
<svg width="66px" height="66px" viewBox="0 0 66 66" version="1.1" xmlns="http://www.w3.org/2000/svg" xmlns:xlink="http://www.w3.org/1999/xlink">
    <!-- Generator: Sketch 47.1 (45422) - http://www.bohemiancoding.com/sketch -->
    <title>time</title>
    <desc>Created with Sketch.</desc>
    <defs></defs>
    <g id="Symbols" stroke="none" stroke-width="1" fill="none" fill-rule="evenodd">
        <g id="Artboard" transform="translate(-41.000000, -588.000000)">
            <g id="time" transform="translate(41.000000, 588.000000)">
                <rect id="size" fill-opacity="0" fill="#FFFFFF" x="1" y="1" width="65" height="65"></rect>
                <path d="M2.5,10.5 L2.5,7.5 L15.5,7.5 L15.5,20.5 L12.5,20.5 L12.5,11.8311189 C6.74525143,17.2798056 3.5,24.8981178 3.5,33 C3.5,49.2238576 16.7761424,62.5 33,62.5 C49.2238576,62.5 62.5,49.2238576 62.5,33 C62.5,16.7761424 49.2238576,3.5 33,3.5 L32.5,3.5 L32.5,0.5 L33,0.5 C50.8761424,0.5 65.5,15.1238576 65.5,33 C65.5,50.8761424 50.8761424,65.5 33,65.5 C15.1238576,65.5 0.5,50.8761424 0.5,33 C0.5,24.5444018 3.75324826,16.4951622 9.58400739,10.5 L2.5,10.5 Z M31.5,4.5 L34.5,4.5 L34.5,9.5 L31.5,9.5 L31.5,4.5 Z M31.5,56.5 L34.5,56.5 L34.5,61.5 L31.5,61.5 L31.5,56.5 Z M4.5,31.5 L9.5,31.5 L9.5,34.5 L4.5,34.5 L4.5,31.5 Z M56.5,31.5 L61.5,31.5 L61.5,34.5 L56.5,34.5 L56.5,31.5 Z M43.4071068,41.3 L41.3,43.4071068 L31.5,33.6071068 L31.5,12.5 L34.5,12.5 L34.5,32.3928932 L43.4071068,41.3 Z" fill-opacity="0.391276042" fill="#72C42A" fill-rule="nonzero"></path>
            </g>
        </g>
    </g>
</svg>