<?xml version="1.0" encoding="UTF-8"?>
<svg width="65px" height="66px" viewBox="0 0 65 66" version="1.1" xmlns="http://www.w3.org/2000/svg" xmlns:xlink="http://www.w3.org/1999/xlink">
    <!-- Generator: Sketch 47.1 (45422) - http://www.bohemiancoding.com/sketch -->
    <title>wall_g</title>
    <desc>Created with Sketch.</desc>
    <defs></defs>
    <g id="Page-1" stroke="none" stroke-width="1" fill="none" fill-rule="evenodd">
        <g id="category_menu" transform="translate(-470.000000, -556.000000)" fill-rule="nonzero" fill="#14A31A">
            <g id="category_menu-activ" transform="translate(91.000000, 397.000000)">
                <g id="5" transform="translate(355.000000, 145.000000)">
                    <path d="M83.9522998,47.2628348 C81.9262282,45.4385439 76.9464443,44.4785358 71.8647371,44.2836417 L71.8647371,20.6642744 C71.8647371,20.6456802 71.8661145,20.6270861 71.8661145,20.608492 C71.8661145,20.5954072 71.8647371,20.5823225 71.8647371,20.5692377 L71.8647371,20.4583616 L71.8606051,20.4583616 C71.8062001,16.8462794 69.8138733,14.0351222 67.2685434,14.002066 L67.2685434,14 L30.3378441,14 C26.8435247,14 24,16.935118 24,20.5423795 C24,22.6097714 24.9365933,24.4540338 26.3931336,25.6536996 L26.3931336,64.961693 L55.320781,64.961693 C55.3214697,69.8092519 55.3228471,73.9729599 55.3228471,74.410955 C55.3228471,75.5114521 55.5356466,75.9990316 55.5356466,75.9990316 C56.8331037,78.6428416 63.6929608,79.8576581 70.1113794,79.8576581 C76.5297981,79.8576581 83.3896551,78.6428416 84.6871123,75.9990316 C84.6871123,75.9990316 84.9054212,75.5947814 84.9054212,75.2153234 C84.9054212,74.8537708 84.9054212,67.5696921 84.9054212,60.8916443 C87.0671611,59.6423941 88.4183346,57.9241587 88.7785098,55.9084171 C89.3142963,52.9133846 87.5554292,49.7675331 83.9522998,47.2628348 Z M58.1298722,45.9488495 L55.0549538,44.8552391 L49.6289109,46.784208 L44.2028679,44.8552391 L38.7775136,46.784208 L33.3514707,44.8552391 L28.4584595,46.5941347 L28.4584595,44.7388536 L33.3514707,42.9992693 L38.7775136,44.9282383 L44.2028679,42.9992693 L49.6289109,44.9282383 L55.0549538,42.9992693 L60.4803081,44.9282383 L65.9063511,42.9992693 L69.4213306,44.2485195 C65.2500471,44.2870851 60.9575575,44.834579 58.1298722,45.9488495 Z M69.7987226,35.628418 L65.9063511,34.2448769 L60.4803081,36.1731572 L55.0549538,34.2448769 L49.6289109,36.1731572 L44.2028679,34.2448769 L38.7775136,36.1731572 L33.3514707,34.2448769 L28.4584595,35.9844612 L28.4584595,34.1284914 L33.3514707,32.3889071 L38.7775136,34.3178761 L44.2028679,32.3889071 L49.6289109,34.3178761 L55.0549538,32.3889071 L60.4803081,34.3178761 L65.9063511,32.3889071 L69.7987226,33.7724482 L69.7987226,35.628418 Z M28.4584595,38.1765026 L33.3514707,36.437607 L38.7775136,38.3658873 L44.2028679,36.437607 L49.6289109,38.3658873 L55.0549538,36.437607 L60.4803081,38.3658873 L65.9063511,36.437607 L69.7987226,37.8211481 L69.7987226,42.1914576 L65.9063511,40.8072279 L60.4803081,42.7361968 L55.0549538,40.8072279 L49.6289109,42.7361968 L44.2028679,40.8072279 L38.7775136,42.7361968 L33.3514707,40.8072279 L28.4584595,42.5461235 L28.4584595,38.1765026 Z M28.4584595,55.8312859 L33.3514707,54.0923903 L38.7775136,56.0213592 L44.2028679,54.0923903 L49.6289109,56.0213592 L55.0549538,54.0923903 L55.3180264,54.1853609 C55.3180264,54.7755524 55.3180264,55.3967342 55.318715,56.0420194 L55.0549538,55.9483601 L49.6289109,57.877329 L44.2028679,55.9483601 L38.7775136,57.877329 L33.3514707,55.9483601 L28.4584595,57.6872557 L28.4584595,55.8312859 L28.4584595,55.8312859 Z M55.0549538,51.8996601 L49.6289109,53.8286291 L44.2028679,51.8996601 L38.7775136,53.8286291 L33.3514707,51.8996601 L28.4584595,53.6385558 L28.4584595,48.7868648 L33.3514707,47.0479692 L38.7775136,48.9769382 L44.2028679,47.0479692 L49.6289109,48.9769382 L55.0549538,47.0479692 L55.7911437,47.3096644 C55.216103,47.8447622 54.8882953,48.4521705 54.8882953,49.13671 C54.8882953,49.6015633 55.0418691,50.0292283 55.316649,50.4245257 C55.316649,50.8714736 55.316649,51.403128 55.316649,51.9919421 L55.0549538,51.8996601 Z M70.1106908,54.2948597 C71.3144886,54.2948597 72.735218,54.2383887 74.2075977,54.1151164 L74.2075977,55.4318564 C74.2075977,57.0509232 75.5250263,58.3690405 77.1447817,58.3690405 C78.7645372,58.3690405 80.0819658,57.0509232 80.0819658,55.4318564 L80.0819658,53.1716365 C81.1232372,52.8934132 82.0687832,52.5545868 82.8394066,52.1427612 L82.8394066,59.6224226 C82.5377685,59.7546476 82.2237343,59.8806745 81.8917946,59.9963713 C78.8981394,61.0403973 75.1097574,61.2325367 71.2242726,60.5362898 C64.9222395,59.4082458 59.8274475,56.1081318 58.6215837,52.679925 C61.3025819,53.6888288 65.4476959,54.2948597 70.1106908,54.2948597 Z M82.7120024,48.8812128 L82.6968516,48.9025617 C82.7257758,48.9225331 82.7519453,48.9431933 82.7808695,48.9631648 C82.8187464,49.0251452 82.8394066,49.0843709 82.8394066,49.13671 C82.8394066,49.3247173 82.1224995,50.2551125 78.8079235,51.0477735 L78.0159512,51.2371581 L78.0159512,55.4318564 C78.0159512,55.9118605 77.6254745,56.3030259 77.1447817,56.3030259 C76.664089,56.3030259 76.2736123,55.9125491 76.2736123,55.4318564 L76.2736123,51.5449943 L75.1228421,51.6758419 C73.4672758,51.8645379 71.7084087,51.9616406 69.8965139,51.9616406 C61.4899006,51.9616406 56.9543099,49.9562291 56.9543099,49.1353326 C56.9543099,48.3158135 61.4899006,46.3097134 69.8965139,46.3097134 C77.5318151,46.3110907 81.9606617,47.962525 82.7120024,48.8812128 Z M30.3378441,16.0660146 L63.7873088,16.0660146 C62.9519502,17.2684351 62.4574841,18.8895678 62.4574841,20.6422369 C62.4574841,22.2991806 62.8996112,23.8397388 63.6537065,25.0187444 L30.3378441,25.0187444 C27.9818988,25.0187444 26.0660146,23.0105783 26.0660146,20.5416908 C26.0653259,18.0734921 27.9818988,16.0660146 30.3378441,16.0660146 Z M30.3378441,27.084759 L66.2362248,27.084759 L67.1900348,27.0496368 L67.1982989,27.0723629 C67.2162043,27.0661649 67.2320438,27.0544575 67.2499492,27.0475708 L67.269232,27.0468821 L67.269232,27.0372407 C68.543963,26.5365765 69.3972271,24.8438219 69.3972271,22.778496 C69.3972271,21.4906802 69.0528913,20.2827503 68.4530584,19.4639199 L66.7864733,20.6849345 C67.122545,21.1435897 67.3312125,21.9452034 67.3312125,22.7778073 C67.3312125,23.9409735 66.9524431,24.7412098 66.6583804,25.0201218 C65.4917708,24.5146369 64.6488369,22.6800159 64.6488369,20.6078033 C64.6488369,18.8083046 65.2631319,17.3786225 66.0351327,16.6327912 C66.0723209,16.599735 66.1067545,16.5625468 66.1446314,16.5322452 C66.172867,16.507453 66.2011025,16.4847269 66.229338,16.4620007 C66.3643177,16.362832 66.504118,16.2781254 66.6494277,16.2154563 L66.8580951,16.123863 C66.9806787,16.0873634 67.1032622,16.0646372 67.2244684,16.0646372 C68.4193135,16.0646372 69.7450062,17.8613813 69.7952792,20.4576729 L69.7863265,20.4576729 L69.7863265,22.5236875 L69.7987226,22.5236875 L69.7987226,31.5783407 L65.9063511,30.1947996 L60.4803081,32.1237686 L55.0549538,30.1947996 L49.6289109,32.1237686 L44.2028679,30.1947996 L38.7775136,32.1237686 L33.3514707,30.1947996 L28.4584595,31.9357612 L28.4584595,26.7900076 C29.0520943,26.9807696 29.6836061,27.084759 30.3378441,27.084759 Z M28.4584595,62.8956784 L28.4584595,59.8799858 L33.3514707,58.1410902 L38.7775136,60.0700591 L44.2028679,58.1410902 L49.6289109,60.0700591 L55.0549538,58.1410902 L55.318715,58.2347495 C55.3194037,59.7532702 55.3200924,61.3351487 55.3200924,62.8963671 L28.4584595,62.8963671 L28.4584595,62.8956784 Z M82.8394066,73.9419697 L82.8394066,75.073457 C82.8394066,75.8626746 78.3788811,77.7909549 70.1113794,77.7909549 C61.8438778,77.7909549 57.3833523,75.8619859 57.3847296,75.063127 L57.3833523,73.9323283 L57.3833523,54.9057114 C59.5175453,58.449615 64.5407155,61.4398268 70.8613427,62.5706255 C72.5113997,62.8660655 74.1490606,63.0127526 75.7323164,63.0127526 C78.2074019,63.0127526 80.5447531,62.6546434 82.572202,61.9480664 C82.6637954,61.9163875 82.750568,61.8812653 82.8400953,61.8475204 L82.8400953,73.9419697 L82.8394066,73.9419697 Z M86.7448628,55.5434212 C86.5541008,56.6101734 85.9129476,57.5708702 84.9054212,58.3855686 C84.9054212,55.1006054 84.9054212,52.2322885 84.9054212,50.790899 C86.3433673,52.35074 87.0155107,54.0290325 86.7448628,55.5434212 Z" id="wall_g"></path>
                </g>
            </g>
        </g>
    </g>
</svg>